<?xml version="1.0" encoding="UTF-8"?>
<svg version="1.1" xmlns="http://www.w3.org/2000/svg" width="476" height="524">
<path d="M0 0 C0.98484375 0.474375 1.9696875 0.94875 2.984375 1.4375 C6.04275222 3.02215141 8.95749851 4.73214338 11.875 6.5625 C12.84179688 7.16191406 13.80859375 7.76132813 14.8046875 8.37890625 C15.89136719 9.18134766 15.89136719 9.18134766 17 10 C17 10.66 17 11.32 17 12 C17.86044922 12.38285156 17.86044922 12.38285156 18.73828125 12.7734375 C21.25566792 14.13865238 23.07554645 15.68873109 25.1875 17.625 C26.06148437 18.42292969 26.93546875 19.22085938 27.8359375 20.04296875 C30.23767374 22.27337592 32.60928473 24.53386888 34.9765625 26.80078125 C50.19203151 41.34579695 65.55556066 54.62041369 86 61 C87.13066895 61.40532959 87.13066895 61.40532959 88.28417969 61.81884766 C99.40273884 65.28232421 111.1194702 64.24869816 122.625 64.0625 C125.9366329 64.01439672 129.24806481 63.9710843 132.55990601 63.94029236 C134.60806732 63.92080063 136.65616892 63.89148599 138.70401001 63.85035706 C155.47808024 63.67515431 169.73722118 69.53696763 182 81 C191.90586826 91.94621059 196.09717832 103.05648901 196.23828125 117.64453125 C196.246353 118.45435959 196.25442474 119.26418793 196.26274109 120.09855652 C196.27649828 121.80372021 196.28725737 123.50891048 196.29516602 125.21411133 C196.30668673 126.94108269 196.32714015 128.66801842 196.35668945 130.39477539 C196.66708772 148.57995219 196.66708772 148.57995219 192 157 C191.505 158.04929687 191.01 159.09859375 190.5 160.1796875 C184.91250105 170.21972468 176.98153647 179.13013667 167 185 C166.01 185 165.02 185 164 185 C164 185.66 164 186.32 164 187 C163.18917969 187.42410156 162.37835938 187.84820312 161.54296875 188.28515625 C142.20225463 197.69608745 142.20225463 197.69608745 128 213 C127.34 213 126.68 213 126 213 C125.6596875 213.9590625 125.6596875 213.9590625 125.3125 214.9375 C124.27122611 217.36713907 123.176127 219.52567072 121.875 221.8125 C119.53400147 225.94849158 117.40950739 230.17448423 115.3125 234.4375 C108.70386497 247.77680002 101.63809401 260.85214787 93 273 C92.31550781 273.97066406 91.63101562 274.94132812 90.92578125 275.94140625 C86.82950919 281.58205377 82.46042488 286.86998496 77.75 292 C77.25467773 292.54003662 76.75935547 293.08007324 76.24902344 293.63647461 C73.35386822 296.72876128 70.31811472 299.3793234 67 302 C66.19046875 302.81984375 65.3809375 303.6396875 64.546875 304.484375 C52.16520868 316.71411904 34.41944915 324.91057665 18 330 C17.12730469 330.28359375 16.25460937 330.5671875 15.35546875 330.859375 C12.58732273 331.69279531 9.82101371 332.36714901 7 333 C5.78699219 333.27972656 4.57398438 333.55945313 3.32421875 333.84765625 C-19.37142841 338.49629039 -45.65816415 338.14618243 -68 332 C-69.134375 331.69964844 -70.26875 331.39929688 -71.4375 331.08984375 C-80.97159971 328.22216532 -91.61281525 323.73821712 -99 317 C-99 316.34 -99 315.68 -99 315 C-99.99 314.67 -100.98 314.34 -102 314 C-103.53515625 312.21484375 -103.53515625 312.21484375 -105.0625 309.9375 C-105.56910156 309.20402344 -106.07570313 308.47054688 -106.59765625 307.71484375 C-111.27691966 298.6561026 -110.0834302 288.79369331 -109.65722656 278.91137695 C-109.16602171 267.70904351 -109.16602171 267.70904351 -114.18603516 257.92163086 C-114.78464355 257.28749268 -115.38325195 256.65335449 -116 256 C-116.61020996 255.34974854 -117.22041992 254.69949707 -117.84912109 254.02954102 C-119.79410624 252.05315324 -121.79280174 250.1497614 -123.8125 248.25 C-137.15293111 235.29308145 -144.63610902 223.96514161 -145 205 C-144.89211447 194.05732471 -140.46452997 185.27178445 -135 176 C-135.81984375 175.52949219 -136.6396875 175.05898438 -137.484375 174.57421875 C-139.10085937 173.64029297 -139.10085937 173.64029297 -140.75 172.6875 C-141.81734375 172.07261719 -142.8846875 171.45773437 -143.984375 170.82421875 C-146.46625592 169.32287369 -148.80899212 167.89851896 -151 166 C-151 165.34 -151 164.68 -151 164 C-152.32 163.34 -153.64 162.68 -155 162 C-155 161.34 -155 160.68 -155 160 C-155.99 159.67 -156.98 159.34 -158 159 C-166.45104652 149.2940417 -170.56191979 137.80324741 -171 125 C-170.1821618 118.31709353 -168.50482321 112.14836938 -164 107 C-157.68378432 102.23061265 -152.72747917 101.35700025 -145 102 C-133.3459594 104.78550004 -124.04596397 113.6853481 -117.59765625 123.39453125 C-112.46204357 131.76972357 -107.66204513 140.9502895 -108 151 C-100.49514304 144.37806739 -95.62140493 135.7810704 -94.8203125 125.75 C-94.56764807 117.44014774 -96.56009233 112.155685 -102 106 C-102 105.34 -102 104.68 -102 104 C-102.84111328 103.61714844 -102.84111328 103.61714844 -103.69921875 103.2265625 C-112.90767523 98.31747025 -122.40707649 89.66491029 -126.3359375 79.80859375 C-128.60744711 70.20144429 -128.19422792 60.11651469 -123.4921875 51.36328125 C-115.57796522 38.82897634 -103.56344568 26.90450124 -91 19 C-90.01 19 -89.02 19 -88 19 C-87.505 17.515 -87.505 17.515 -87 16 C-85.40869141 14.65307617 -85.40869141 14.65307617 -83.3515625 13.29296875 C-82.59858887 12.79144287 -81.84561523 12.28991699 -81.06982422 11.77319336 C-80.26303223 11.24991455 -79.45624023 10.72663574 -78.625 10.1875 C-77.80660645 9.65068604 -76.98821289 9.11387207 -76.14501953 8.56079102 C-52.63598216 -6.72124364 -26.34737494 -12.720724 0 0 Z " fill="#E5E9D6" transform="translate(242,121)"/>
<path d="M0 0 C1.05026367 0.00829834 2.10052734 0.01659668 3.18261719 0.02514648 C20.11568542 0.39217766 34.72301238 6.85504316 47.1875 18.4375 C56.98929733 29.25267388 66.06669221 44.40901044 66.1875 59.4375 C66.24357422 61.16613281 66.24357422 61.16613281 66.30078125 62.9296875 C66.60482173 78.83580538 63.22157394 96.62907686 52 108.8125 C49.0227592 111.59125808 45.96550969 114.25351059 42.859375 116.88671875 C41.08423637 118.35100467 41.08423637 118.35100467 40.1875 120.4375 C23.56642034 131.34508352 4.73151554 134.84246251 -14.8125 131.6875 C-24.63590928 129.51616716 -32.53051376 125.03231932 -40.8125 119.4375 C-42.2975 118.4475 -42.2975 118.4475 -43.8125 117.4375 C-43.8125 116.7775 -43.8125 116.1175 -43.8125 115.4375 C-44.40289062 115.17839844 -44.99328125 114.91929687 -45.6015625 114.65234375 C-55.37973235 109.27953311 -60.66792883 96.06136972 -64.06640625 86.03515625 C-68.44428382 70.79280764 -66.98267255 51.46732581 -59.8125 37.4375 C-59.379375 36.468125 -58.94625 35.49875 -58.5 34.5 C-55.97652297 29.9203565 -53.13161732 25.48442376 -49.8125 21.4375 C-49.1525 21.4375 -48.4925 21.4375 -47.8125 21.4375 C-47.1525 20.1175 -46.4925 18.7975 -45.8125 17.4375 C-45.1525 17.4375 -44.4925 17.4375 -43.8125 17.4375 C-43.4825 16.4475 -43.1525 15.4575 -42.8125 14.4375 C-30.20809693 4.73661121 -15.83395847 -0.16243237 0 0 Z " fill="#FCC33F" transform="translate(379.8125,41.5625)"/>
<path d="M0 0 C11.15997465 8.63785335 19.09928644 18.72352925 21 33 C22.11743798 49.10651987 18.60130677 61.7997358 8 74 C3.783373 78.22595582 -0.73593104 81.2244 -6 84 C-6.99 84.556875 -7.98 85.11375 -9 85.6875 C-19.74261286 90.38739313 -35.27551854 89.2283731 -46.1640625 85.19921875 C-47.79655906 84.51304988 -49.40246504 83.76403846 -51 83 C-51 82.34 -51 81.68 -51 81 C-51.70125 80.773125 -52.4025 80.54625 -53.125 80.3125 C-62.09986238 76.21528022 -68.37858268 66.95824285 -72 58 C-75.52975184 46.66763882 -75.80405106 32.01908214 -71 21 C-63.74727838 7.82597426 -54.69815081 -1.59055476 -40 -6 C-26.17839282 -8.87078774 -12.03006375 -7.59017805 0 0 Z " fill="#E52F12" transform="translate(443,406)"/>
<path d="M0 0 C6.99138349 6.1288102 12.65466735 13.11210154 13.86450195 22.62451172 C13.99943951 25.15252548 14.02120695 27.65616152 14 30.1875 C14.01998047 31.02990234 14.03996094 31.87230469 14.06054688 32.74023438 C14.05314222 42.35887998 9.99484787 50.22480901 3.5625 57.25 C-4.43887735 64.58736263 -13.53396744 67.60376009 -24.375 67.3984375 C-33.27610963 66.75782734 -43.1024522 62.5850478 -49.4375 56.25 C-49.4375 55.26 -49.4375 54.27 -49.4375 53.25 C-50.035625 53.04375 -50.63375 52.8375 -51.25 52.625 C-55.36073162 50.04111155 -56.45585483 45.62988803 -57.625 41.125 C-60.22623981 28.00857895 -57.70705097 17.48380774 -50.9375 6.18359375 C-49.4375 4.25 -49.4375 4.25 -46.4375 3.25 C-46.1075 2.26 -45.7775 1.27 -45.4375 0.25 C-31.97445802 -10.25774008 -13.61633162 -10.4487862 0 0 Z " fill="#BBD5AA" transform="translate(350.4375,439.75)"/>
<path d="M0 0 C2.81648238 1.42048677 5.27005277 3.01113333 7.796875 4.90625 C8.80814453 5.64681641 8.80814453 5.64681641 9.83984375 6.40234375 C15.14338905 10.58528567 17.36253543 14.31725262 18.796875 20.90625 C19.456875 20.90625 20.116875 20.90625 20.796875 20.90625 C21.94472876 23.34281685 23.09022902 25.78044281 24.234375 28.21875 C24.55986328 28.90904297 24.88535156 29.59933594 25.22070312 30.31054688 C27.59220801 35.3713872 28.92505611 39.01085554 28.859375 44.59375 C28.85035156 45.58761719 28.84132812 46.58148438 28.83203125 47.60546875 C28.82042969 48.36472656 28.80882812 49.12398438 28.796875 49.90625 C27.806875 49.90625 26.816875 49.90625 25.796875 49.90625 C25.796875 50.89625 25.796875 51.88625 25.796875 52.90625 C23.321875 53.40125 23.321875 53.40125 20.796875 53.90625 C20.466875 55.22625 20.136875 56.54625 19.796875 57.90625 C18.8378125 58.0609375 18.8378125 58.0609375 17.859375 58.21875 C17.17875 58.445625 16.498125 58.6725 15.796875 58.90625 C15.466875 59.89625 15.136875 60.88625 14.796875 61.90625 C12.85016793 64.6316399 10.79386368 66.40279376 7.796875 67.90625 C1.62039503 68.58131753 -4.2962756 68.0191832 -9.515625 64.46875 C-10.4025 63.623125 -11.289375 62.7775 -12.203125 61.90625 C-12.203125 61.24625 -12.203125 60.58625 -12.203125 59.90625 C-13.523125 59.24625 -14.843125 58.58625 -16.203125 57.90625 C-16.203125 57.24625 -16.203125 56.58625 -16.203125 55.90625 C-17.193125 55.57625 -18.183125 55.24625 -19.203125 54.90625 C-27.65417152 45.2002917 -31.76504479 33.70949741 -32.203125 20.90625 C-31.3852868 14.22334353 -29.70794821 8.05461938 -25.203125 2.90625 C-17.3869095 -2.99579027 -9.02217561 -3.89757986 0 0 Z " fill="#FCBE36" transform="translate(103.203125,225.09375)"/>
<path d="M0 0 C3.18251523 2.12167682 4.87267139 3.80900708 7 7 C7.71238425 12.27661359 7.60243219 16.72819871 5.3125 21.5625 C1.81294558 25.25121953 -1.0414238 26.0794842 -6 26.3125 C-9.74508305 26.20670669 -12.02204767 25.38236187 -15 23 C-18.80141756 18.89409996 -18.50074659 15.22869578 -18.34375 9.8515625 C-17.88442236 6.04123094 -17.01047086 4.39293838 -14 2 C-8.96316877 -0.85103655 -5.60450599 -1.55680722 0 0 Z " fill="#35864C" transform="translate(368,391)"/>
<path d="M0 0 C1.69345423 2.18587709 2.94540319 4.10375125 4.25 6.5 C7.773102 12.52710589 11.57530874 16.78798888 17.12890625 21.1328125 C17.74636719 21.74898438 18.36382812 22.36515625 19 23 C19 24.32 19 25.64 19 27 C10.74727361 26.62487607 2.1945345 22.41097763 -4 17 C-4 16.34 -4 15.68 -4 15 C-4.598125 14.79375 -5.19625 14.5875 -5.8125 14.375 C-8.91064331 12.42759563 -9.73689741 10.39043326 -11 7 C-10.92495773 3.77318229 -10.46818363 2.52020404 -8.3125 0.125 C-5.04850717 -1.4628884 -3.4447191 -1.077822 0 0 Z " fill="#287251" transform="translate(80,342)"/>
<path d="M0 0 C6.01682594 3.03457308 10.83532627 7.42322628 15.796875 11.90625 C15.466875 12.56625 15.136875 13.22625 14.796875 13.90625 C14.24 13.2875 13.683125 12.66875 13.109375 12.03125 C10.96492156 9.79964142 10.96492156 9.79964142 8.359375 8.96875 C5.796875 7.90625 5.796875 7.90625 3.484375 5.46875 C-0.82040595 1.36419142 -5.54244228 -0.20104426 -11.453125 -0.53125 C-15.75341288 -0.02954975 -16.44943636 0.77274224 -19.203125 3.90625 C-21.953125 4.65625 -21.953125 4.65625 -24.203125 4.90625 C-24.40808594 5.53273437 -24.61304687 6.15921875 -24.82421875 6.8046875 C-25.09363281 7.62195313 -25.36304687 8.43921875 -25.640625 9.28125 C-25.90746094 10.09335938 -26.17429687 10.90546875 -26.44921875 11.7421875 C-27.203125 13.90625 -27.203125 13.90625 -28.203125 15.90625 C-28.35412763 18.71141421 -28.43447999 21.47517587 -28.453125 24.28125 C-28.47375 25.04953125 -28.494375 25.8178125 -28.515625 26.609375 C-28.54646724 31.06607881 -28.37137294 33.51922279 -25.203125 36.90625 C-24.515625 39.65625 -24.515625 39.65625 -24.203125 41.90625 C-23.543125 41.90625 -22.883125 41.90625 -22.203125 41.90625 C-22.203125 43.22625 -22.203125 44.54625 -22.203125 45.90625 C-21.543125 45.90625 -20.883125 45.90625 -20.203125 45.90625 C-20.203125 46.56625 -20.203125 47.22625 -20.203125 47.90625 C-19.543125 47.90625 -18.883125 47.90625 -18.203125 47.90625 C-17.996875 48.855 -17.790625 49.80375 -17.578125 50.78125 C-16.5179939 54.17634182 -16.5179939 54.17634182 -13.265625 55.09375 C-12.255 55.361875 -11.244375 55.63 -10.203125 55.90625 C-7.70314992 57.97909366 -6.40016054 60.18145111 -5.015625 63.09375 C-4.67144531 63.80917969 -4.32726562 64.52460938 -3.97265625 65.26171875 C-3.71871094 65.80441406 -3.46476562 66.34710938 -3.203125 66.90625 C-6.64240079 65.6642893 -9.45520319 64.34884716 -12.203125 61.90625 C-12.203125 61.24625 -12.203125 60.58625 -12.203125 59.90625 C-13.523125 59.24625 -14.843125 58.58625 -16.203125 57.90625 C-16.203125 57.24625 -16.203125 56.58625 -16.203125 55.90625 C-17.193125 55.57625 -18.183125 55.24625 -19.203125 54.90625 C-27.65417152 45.2002917 -31.76504479 33.70949741 -32.203125 20.90625 C-31.3852868 14.22334353 -29.70794821 8.05461938 -25.203125 2.90625 C-17.3869095 -2.99579027 -9.02217561 -3.89757986 0 0 Z " fill="#F8E0A8" transform="translate(103.203125,225.09375)"/>
<path d="M0 0 C0.66 0 1.32 0 2 0 C2.33 0.66 2.66 1.32 3 2 C4.88764903 2.68472665 4.88764903 2.68472665 7.0625 3.125 C7.79597656 3.29257813 8.52945312 3.46015625 9.28515625 3.6328125 C9.85105469 3.75398437 10.41695313 3.87515625 11 4 C10.01 4.495 10.01 4.495 9 5 C9.33 5.99 9.66 6.98 10 8 C11.65 8.33 13.3 8.66 15 9 C15 9.99 15 10.98 15 12 C17.31 12.33 19.62 12.66 22 13 C22 13.66 22 14.32 22 15 C22.515625 15.12375 23.03125 15.2475 23.5625 15.375 C26 16 26 16 28.75 17.02734375 C34.80078907 18.757266 41.20536848 18.24673487 47.4375 18.1875 C48.72205078 18.18685547 50.00660156 18.18621094 51.33007812 18.18554688 C57.64011579 18.15628859 63.76402163 17.98545802 70 17 C70 16.34 70 15.68 70 15 C70.87011719 14.81824219 70.87011719 14.81824219 71.7578125 14.6328125 C76.28028442 13.66264526 80.63750966 12.56602217 85 11 C81.14027803 15.2660085 76.51920514 17.34561285 71.125 19.125 C70.13757813 19.45757812 69.15015625 19.79015625 68.1328125 20.1328125 C52.52032102 24.45447473 33.50494892 23.24140198 19 16 C15.24667275 13.78954245 11.60885225 11.43792681 8 9 C7.01 8.34 6.02 7.68 5 7 C5 6.34 5 5.68 5 5 C4.360625 4.731875 3.72125 4.46375 3.0625 4.1875 C1 3 1 3 0 0 Z " fill="#F5D278" transform="translate(331,152)"/>
<path d="M0 0 C3.18251523 2.12167682 4.87267139 3.80900708 7 7 C7.71238425 12.27661359 7.60243219 16.72819871 5.3125 21.5625 C1.81294558 25.25121953 -1.0414238 26.0794842 -6 26.3125 C-9.74508305 26.20670669 -12.02204767 25.38236187 -15 23 C-18.80141756 18.89409996 -18.50074659 15.22869578 -18.34375 9.8515625 C-17.88442236 6.04123094 -17.01047086 4.39293838 -14 2 C-8.96316877 -0.85103655 -5.60450599 -1.55680722 0 0 Z M-10 1 C-10 1.99 -10 2.98 -10 4 C-10.825 4.845625 -11.65 5.69125 -12.5 6.5625 C-15.60963398 10.06854624 -15.48950086 13.19617276 -15.37109375 17.73046875 C-15.11563433 20.27414278 -15.11563433 20.27414278 -13 23 C-10.87465341 22.85930804 -8.74972471 22.71229079 -6.625 22.5625 C-4.84996094 22.44068359 -4.84996094 22.44068359 -3.0390625 22.31640625 C-0.08481099 22.18915064 -0.08481099 22.18915064 2 21 C2 19.68 2 18.36 2 17 C3.32 16.34 4.64 15.68 6 15 C6.31658501 10.96354118 6.4210379 8.67666805 4.25 5.1875 C0.73095391 1.76620519 -1.38959138 0.90067117 -6.25 0.875 C-7.4875 0.91625 -8.725 0.9575 -10 1 Z " fill="#9EC1AA" transform="translate(368,391)"/>
<path d="M0 0 C1 3 1 3 -0.3125 5.6875 C-0.869375 6.780625 -1.42625 7.87375 -2 9 C-5.11563503 19.51667421 -6.26115233 32.64930958 -1.3359375 42.76171875 C1.91490355 48.20830331 5.29644901 53.5049318 9.875 57.9375 C12 60 12 60 13 63 C14.485 63.495 14.485 63.495 16 64 C20.52713485 68.02411987 24.87054256 72.81015443 28 78 C27.505 79.485 27.505 79.485 27 81 C26.47756714 80.25882935 26.47756714 80.25882935 25.94458008 79.50268555 C22.26177022 74.41880015 18.23051111 70.12580177 13.6875 65.8125 C0.58522418 53.02379116 -6.64241593 41.6364403 -7 23 C-6.91671984 14.55301252 -4.70391023 7.05586534 0 0 Z " fill="#F8F9F4" transform="translate(104,303)"/>
<path d="M0 0 C8.89522011 7.84872362 13.85581923 19.03939333 15.34765625 30.72265625 C15.55618924 36.298647 15.55618924 36.298647 13.66796875 38.6796875 C12 40 12 40 8.875 41 C7.451875 41.495 7.451875 41.495 6 42 C5.67 42.99 5.34 43.98 5 45 C3.0625 47.1875 3.0625 47.1875 1 49 C0.34 49 -0.32 49 -1 49 C-1 49.66 -1 50.32 -1 51 C-1.804375 51.474375 -2.60875 51.94875 -3.4375 52.4375 C-6.2918076 53.79983672 -6.2918076 53.79983672 -7 57 C-10.55780196 56.39009109 -13.6828589 55.4216319 -17 54 C-14.65721313 53.30584093 -13.01898847 52.99805246 -10.5625 53.25 C-6.81303717 52.88419875 -5.48334056 50.6846925 -3 48 C-2.34 48 -1.68 48 -1 48 C-0.67 46.68 -0.34 45.36 0 44 C0.639375 43.896875 1.27875 43.79375 1.9375 43.6875 C2.618125 43.460625 3.29875 43.23375 4 43 C4.33 42.01 4.66 41.02 5 40 C7.475 39.505 7.475 39.505 10 39 C10 38.01 10 37.02 10 36 C10.99 36 11.98 36 13 36 C12.83815542 28.52572285 11.36094429 22.62260348 8.25390625 15.82421875 C6.9686441 12.92937595 5.95815686 10.01707997 5 7 C4.34 7 3.68 7 3 7 C0 2.61538462 0 2.61538462 0 0 Z " fill="#F6DB95" transform="translate(119,239)"/>
<path d="M0 0 C0 2.83967231 -0.40267181 5.23735711 -1 8 C-1.66 8 -2.32 8 -3 8 C-3.7282448 12.99367864 -4.38487182 17.99109914 -5 23 C-5.33 23 -5.66 23 -6 23 C-6 34.55 -6 46.1 -6 58 C-11.03097423 52.96902577 -10.21297866 42.74351819 -10.25 36 C-10.16796353 25.51549083 -8.81037653 16.36173279 -4 7 C-3.443125 5.845 -2.88625 4.69 -2.3125 3.5 C-1 1 -1 1 0 0 Z " fill="#F7E09E" transform="translate(324,72)"/>
<path d="M0 0 C0 0.66 0 1.32 0 2 C-3.46153846 5 -3.46153846 5 -6 5 C-6 5.66 -6 6.32 -6 7 C-7.5390625 8.48046875 -7.5390625 8.48046875 -9.625 10.1875 C-18.91362867 18.11401527 -25.26135781 26.73339802 -26.2578125 39.234375 C-26.53846146 47.80352337 -25.92261563 56.07281207 -20.3984375 63.01171875 C-18.62990054 64.86226897 -18.62990054 64.86226897 -16 67 C-16.495 67.99 -16.495 67.99 -17 69 C-23.64908397 63.02329531 -28.58058017 56.56030856 -29.2734375 47.375 C-29.70280749 34.30623854 -26.76890234 24.99148969 -18 15 C-14.54096441 11.44825994 -10.95920434 8.04565202 -7.3125 4.6875 C-5.88357422 3.36298828 -5.88357422 3.36298828 -4.42578125 2.01171875 C-2 0 -2 0 0 0 Z " fill="#F6F8F2" transform="translate(144,147)"/>
<path d="M0 0 C-3.71875 1.1171875 -3.71875 1.1171875 -6.25 0.0625 C-6.8275 -0.288125 -7.405 -0.63875 -8 -1 C-8 -1.66 -8 -2.32 -8 -3 C-30.62663426 -7.34390323 -30.62663426 -7.34390323 -53.0078125 -3.66796875 C-55.70476417 -2.76369672 -58.18492384 -2.77775715 -61 -3 C-60 -5 -60 -5 -57.68359375 -6.0703125 C-39.07149508 -12.11756478 -16.25427294 -11.70307652 0 0 Z " fill="#FBE7AC" transform="translate(414,51)"/>
<path d="M0 0 C3.99524082 0.42806152 7.59299106 0.88029149 11.46142578 2.01806641 C16.69207491 3.3329419 21.7849346 3.21409168 27.1484375 3.125 C28.20100739 3.11742676 29.25357727 3.10985352 30.33804321 3.10205078 C34.80889464 3.06958459 39.27936942 3.01331496 43.75 2.95898438 C47.02862829 2.92259773 50.30719576 2.89854775 53.5859375 2.875 C54.5810434 2.85840332 55.57614929 2.84180664 56.60140991 2.82470703 C64.93508641 2.76702297 72.80786726 3.81350565 80.5625 7 C81.38878906 7.33 82.21507812 7.66 83.06640625 8 C85 9 85 9 86 11 C84.45797384 10.54287762 82.91639786 10.08423653 81.375 9.625 C80.51648438 9.36976563 79.65796875 9.11453125 78.7734375 8.8515625 C76.89565013 8.27500243 75.03398132 7.64361449 73.19108582 6.96372986 C69.9975092 5.99924776 67.49108051 5.74319397 64.16918945 5.72875977 C63.04394363 5.71857315 61.91869781 5.70838654 60.75935364 5.69789124 C58.95454781 5.69468117 58.95454781 5.69468117 57.11328125 5.69140625 C54.53971135 5.66623916 51.96614369 5.64084125 49.39257812 5.61523438 C45.35525557 5.58456036 41.31791171 5.56232079 37.28051758 5.54370117 C33.37039783 5.52192644 29.46073927 5.48247109 25.55078125 5.44140625 C24.35769852 5.44129044 23.16461578 5.44117462 21.93537903 5.4410553 C14.69255792 5.35638413 7.76758808 4.79061463 1 2 C0.67 1.34 0.34 0.68 0 0 Z " fill="#F6F8F1" transform="translate(324,182)"/>
<path d="M0 0 C2.89932357 2.39509338 3.50168276 4.31245243 4 8 C4.66 8 5.32 8 6 8 C6 9.32 6 10.64 6 12 C6.66 12 7.32 12 8 12 C8 12.66 8 13.32 8 14 C8.66 14 9.32 14 10 14 C10.20625 14.94875 10.4125 15.8975 10.625 16.875 C11.6851311 20.27009182 11.6851311 20.27009182 14.9375 21.1875 C15.948125 21.455625 16.95875 21.72375 18 22 C20.49997508 24.07284366 21.80296446 26.27520111 23.1875 29.1875 C23.53167969 29.90292969 23.87585938 30.61835938 24.23046875 31.35546875 C24.48441406 31.89816406 24.73835938 32.44085938 25 33 C21.56072421 31.7580393 18.74792181 30.44259716 16 28 C16 27.34 16 26.68 16 26 C14.68 25.34 13.36 24.68 12 24 C12 23.34 12 22.68 12 22 C11.01 21.67 10.02 21.34 9 21 C4.60677831 15.72813397 0 6.90198905 0 0 Z " fill="#F3D27D" transform="translate(75,259)"/>
<path d="M0 0 C3.5 0.1875 3.5 0.1875 7 1 C9.29013653 4.4352048 9.17842973 5.985331 9 10 C7.68 10 6.36 10 5 10 C4.67 10.99 4.34 11.98 4 13 C-0.875 10.25 -0.875 10.25 -2 8 C-2.1875 5 -2.1875 5 -2 2 C-1.34 1.34 -0.68 0.68 0 0 Z " fill="#317154" transform="translate(73,343)"/>
<path d="M0 0 C0.99 0.33 1.98 0.66 3 1 C2.34 1 1.68 1 1 1 C0.67 1.99 0.34 2.98 0 4 C-2.3125 6.6875 -2.3125 6.6875 -5 9 C-6.32 9 -7.64 9 -9 9 C-9 10.32 -9 11.64 -9 13 C-9.78375 13.61875 -10.5675 14.2375 -11.375 14.875 C-14.46305339 17.37485275 -15.05246227 19.2098491 -16 23 C-16.66 23 -17.32 23 -18 23 C-18.33 24.98 -18.66 26.96 -19 29 C-19.99 28.67 -20.98 28.34 -22 28 C-21.42887939 23.79655229 -20.00402094 21.03182636 -17.6875 17.5 C-17.09324219 16.5821875 -16.49898438 15.664375 -15.88671875 14.71875 C-12.64759876 10.05119821 -9.60997756 6.4091245 -4.9375 3.125 C-4.08027344 2.50882812 -3.22304688 1.89265625 -2.33984375 1.2578125 C-1.56769531 0.84273438 -0.79554688 0.42765625 0 0 Z " fill="#DC5E4C" transform="translate(393,404)"/>
<path d="M0 0 C8.84631004 3.2857723 15.24871273 8.83144074 20 17 C22.5212467 23.97332157 22.165322 34.23407524 19.98828125 41.26953125 C18.0452893 45.25470693 16.73263284 47.51157811 13 50 C14.0524452 47.24745102 15.17657965 44.66803027 16.5625 42.0625 C19.76723754 35.23501568 19.67487226 27.61976939 18.3125 20.3125 C16.75371738 16.37842959 14.78708319 14.15380466 12 11 C12 10.34 12 9.68 12 9 C11.42765625 8.73316406 10.8553125 8.46632812 10.265625 8.19140625 C7.90688039 6.95103193 5.876888 5.54054336 3.75 3.9375 C3.04359375 3.41027344 2.3371875 2.88304687 1.609375 2.33984375 C1.07828125 1.89769531 0.5471875 1.45554688 0 1 C0 0.67 0 0.34 0 0 Z " fill="#F9FAF4" transform="translate(128,216)"/>
<path d="M0 0 C8.34483043 7.86798298 13.53263717 16.26639597 14.09823608 28.04592896 C14.14757279 30.29291006 14.16474674 32.53763828 14.16796875 34.78515625 C14.17129715 35.60447128 14.17462555 36.42378632 14.17805481 37.26792908 C14.18309006 38.98989301 14.18546419 40.7118666 14.18530273 42.43383789 C14.18749646 45.05826873 14.20570792 47.68228355 14.22460938 50.30664062 C14.22754263 51.98697774 14.22952788 53.66731684 14.23046875 55.34765625 C14.23765427 56.12593277 14.24483978 56.90420929 14.25224304 57.70606995 C14.23352427 62.19462233 13.69545351 65.76955581 12 70 C11.67 70 11.34 70 11 70 C11.01554428 69.40246414 11.03108856 68.80492828 11.04710388 68.18928528 C11.20324399 61.91042708 11.30806538 55.63212925 11.38452148 49.35180664 C11.41949552 47.01531536 11.46709242 44.6789747 11.52807617 42.34301758 C12.02962498 23.50769495 12.02962498 23.50769495 4 7 C3.67 6.01 3.34 5.02 3 4 C2.34 4 1.68 4 1 4 C0.67 2.68 0.34 1.36 0 0 Z " fill="#F8F9F3" transform="translate(424,204)"/>
<path d="M0 0 C0.99 0.103125 1.98 0.20625 3 0.3125 C5.56687367 4.1628105 4.83288724 5.89819763 4 10.3125 C-1.42465753 11.6385274 -1.42465753 11.6385274 -3.875 10.25 C-5.47671956 7.49148298 -5.33302312 5.4429173 -5 2.3125 C-3 0.3125 -3 0.3125 0 0 Z " fill="#ECECC8" transform="translate(304,129.6875)"/>
<path d="M0 0 C0.66 0 1.32 0 2 0 C2.33 0.66 2.66 1.32 3 2 C4.88764903 2.68472665 4.88764903 2.68472665 7.0625 3.125 C7.79597656 3.29257813 8.52945312 3.46015625 9.28515625 3.6328125 C9.85105469 3.75398437 10.41695313 3.87515625 11 4 C10.01 4.495 10.01 4.495 9 5 C9.33 5.99 9.66 6.98 10 8 C11.65 8.33 13.3 8.66 15 9 C15 9.99 15 10.98 15 12 C17.31 12.33 19.62 12.66 22 13 C22 13.66 22 14.32 22 15 C22.54140625 15.12246094 23.0828125 15.24492187 23.640625 15.37109375 C26.41285397 16.11004882 29.05864417 17.06926154 31.75 18.0625 C32.73484375 18.42472656 33.7196875 18.78695312 34.734375 19.16015625 C35.48203125 19.43730469 36.2296875 19.71445313 37 20 C37 20.33 37 20.66 37 21 C25.71737985 20.16425036 17.24884935 15.24797477 8 9 C7.01 8.34 6.02 7.68 5 7 C5 6.34 5 5.68 5 5 C4.360625 4.731875 3.72125 4.46375 3.0625 4.1875 C1 3 1 3 0 0 Z " fill="#F9DF9D" transform="translate(331,152)"/>
<path d="M0 0 C5.84332244 6.10892801 5.37328062 15.50642696 5.26171875 23.41015625 C4.29225352 36.70774648 4.29225352 36.70774648 0 41 C0.0707373 40.42604492 0.14147461 39.85208984 0.21435547 39.26074219 C1.00581256 32.2419505 1.15023945 25.30863164 1.125 18.25 C1.12886719 17.15300781 1.13273437 16.05601562 1.13671875 14.92578125 C1.13542969 13.86230469 1.13414062 12.79882812 1.1328125 11.703125 C1.13168457 10.75083008 1.13055664 9.79853516 1.12939453 8.81738281 C0.99142897 5.81337796 0.54947653 2.95418663 0 0 Z " fill="#E48574" transform="translate(459,426)"/>
<path d="M0 0 C5.40832049 -0.4807396 5.40832049 -0.4807396 8 1.625 C9 4 9 4 8.1875 7.25 C7.795625 8.1575 7.40375 9.065 7 10 C4.69 10 2.38 10 0 10 C-1.60339848 6.88228073 -2.18974141 5.60988311 -1.125 2.1875 C-0.75375 1.465625 -0.3825 0.74375 0 0 Z " fill="#E8AAA1" transform="translate(88,381)"/>
<path d="M0 0 C1.62463842 -0.05395478 3.24978541 -0.09277195 4.875 -0.125 C5.77992188 -0.14820313 6.68484375 -0.17140625 7.6171875 -0.1953125 C10 0 10 0 12 2 C13.88657748 2.29277282 13.88657748 2.29277282 16.02734375 2.23046875 C16.81947266 2.22853516 17.61160156 2.22660156 18.42773438 2.22460938 C19.67006836 2.20624023 19.67006836 2.20624023 20.9375 2.1875 C21.76185547 2.18685547 22.58621094 2.18621094 23.43554688 2.18554688 C26.94488444 2.15988965 29.63955301 2.120149 33 1 C35.33299825 0.96045766 37.66708189 0.95598268 40 1 C34.11939358 6.41015791 25.24868072 5.21570737 17.7421875 5.15625 C10.97114845 4.87353438 5.33169687 4.39293309 0 0 Z " fill="#EA8C7B" transform="translate(395,489)"/>
<path d="M0 0 C1.010625 0.0825 2.02125 0.165 3.0625 0.25 C5.0625 3.25 5.0625 3.25 4.8125 5.8125 C4.0625 8.25 4.0625 8.25 2.0625 10.25 C-0.375 10.625 -0.375 10.625 -2.9375 10.25 C-4.875 8.5625 -4.875 8.5625 -5.9375 6.25 C-4.29533071 0.36556006 -4.29533071 0.36556006 0 0 Z " fill="#DE8175" transform="translate(318.9375,151.75)"/>
<path d="M0 0 C4.93285853 4.93285853 4.1558774 14.98736376 4.25 21.5625 C4.08104209 31.91117225 2.2186568 40.55921948 -2 50 C-2.33 50 -2.66 50 -3 50 C-3 47.69 -3 45.38 -3 43 C-1.515 42.505 -1.515 42.505 0 42 C1.30690148 35.02985877 1.1469602 28.07118304 1.125 21 C1.12886719 19.75476563 1.13273437 18.50953125 1.13671875 17.2265625 C1.13049305 11.38685679 1.07765439 5.74749009 0 0 Z " fill="#F8E4A7" transform="translate(442,87)"/>
<path d="M0 0 C0.66 0.33 1.32 0.66 2 1 C2.62068966 10.68965517 2.62068966 10.68965517 0.3125 15.5625 C-2.67851292 18.7151893 -4.7373858 19.88202384 -9.09765625 20.109375 C-11.06539297 20.12325674 -13.03334392 20.06666631 -15 20 C-15.33 19.01 -15.66 18.02 -16 17 C-12.37 16.67 -8.74 16.34 -5 16 C-4.34 14.35 -3.68 12.7 -3 11 C-2.01 10.34 -1.02 9.68 0 9 C0.36362818 6.79274927 0.36362818 6.79274927 0.1875 4.375 C0.16042969 3.55773437 0.13335937 2.74046875 0.10546875 1.8984375 C0.05326172 0.95871094 0.05326172 0.95871094 0 0 Z " fill="#80B08F" transform="translate(373,397)"/>
<path d="M0 0 C11.79058341 0.65503241 19.92537211 6.71795047 28 15 C29.02821144 16.31170081 30.03946773 17.63795906 31 19 C30.67 19.66 30.34 20.32 30 21 C28 20 28 20 26.625 17.6875 C24.9865673 14.97778437 23.41654503 13.03895987 21 11 C20.01 11 19.02 11 18 11 C18 10.34 18 9.68 18 9 C17.34 9 16.68 9 16 9 C16 8.34 16 7.68 16 7 C13.98177083 6.83723958 11.96354167 6.67447917 9.9453125 6.51171875 C8 6 8 6 6 3 C2.94570927 1.78715124 2.94570927 1.78715124 0 1 C0 0.67 0 0.34 0 0 Z " fill="#EA9684" transform="translate(425,400)"/>
<path d="M0 0 C2.80782107 2.48384171 4.72985838 5.09268942 6.6875 8.25 C9.58260312 12.76755165 13.04498809 15.87204508 17.2421875 19.17578125 C19 21 19 21 19 25 C16.6568787 24.74438677 14.32156597 24.40729228 12 24 C11.67 23.34 11.34 22.68 11 22 C12.98 22 14.96 22 17 22 C15.57084149 20.65772954 14.13137328 19.32642904 12.6875 18 C11.48673828 16.88625 11.48673828 16.88625 10.26171875 15.75 C8.08116915 13.69402362 8.08116915 13.69402362 5 14 C5 13.34 5 12.68 5 12 C4.34 12 3.68 12 3 12 C2.86722656 11.38511719 2.73445313 10.77023437 2.59765625 10.13671875 C2.42105469 9.32847656 2.24445313 8.52023437 2.0625 7.6875 C1.88847656 6.88699219 1.71445313 6.08648437 1.53515625 5.26171875 C1.00113841 2.854599 1.00113841 2.854599 0 0 Z " fill="#AAC9BA" transform="translate(80,344)"/>
<path d="M0 0 C0 2.83967231 -0.40267181 5.23735711 -1 8 C-1.66 8 -2.32 8 -3 8 C-3.7282448 12.99367864 -4.38487182 17.99109914 -5 23 C-5.33 23 -5.66 23 -6 23 C-6.33 30.92 -6.66 38.84 -7 47 C-7.33 47 -7.66 47 -8 47 C-8.08842548 42.75013521 -8.14086428 38.50051254 -8.1875 34.25 C-8.21263672 33.06277344 -8.23777344 31.87554687 -8.26367188 30.65234375 C-8.35842309 19.09269579 -6.76917979 9.51344187 0 0 Z " fill="#F7CF71" transform="translate(324,72)"/>
<path d="M0 0 C0.66 1.32 1.32 2.64 2 4 C2.66 4 3.32 4 4 4 C4 4.99 4 5.98 4 7 C4.66 7 5.32 7 6 7 C6 8.32 6 9.64 6 11 C7.65 10.34 9.3 9.68 11 9 C11 10.32 11 11.64 11 13 C11.46675948 16.81186907 11.83976974 18.75965462 14 22 C7.55845215 19.45169535 4.36236066 12.37314438 1.0625 6.625 C0 4 0 4 0 0 Z " fill="#E48576" transform="translate(371,460)"/>
<path d="M0 0 C-2.86433252 6.40594564 -7.52780501 10.52533721 -14 13 C-14.74276031 14.97080157 -14.74276031 14.97080157 -15 17 C-15.66 17.66 -16.32 18.32 -17 19 C-18.32 19 -19.64 19 -21 19 C-21 18.34 -21 17.68 -21 17 C-20.01 17 -19.02 17 -18 17 C-17.87625 16.38125 -17.7525 15.7625 -17.625 15.125 C-17 13 -17 13 -15 11 C-14.01 11 -13.02 11 -12 11 C-12 10.34 -12 9.68 -12 9 C-10.5498829 7.74762614 -9.09372928 6.50079426 -7.59375 5.30859375 C-5.82407293 3.90509072 -5.82407293 3.90509072 -3.75 1.6875 C-2 0 -2 0 0 0 Z " fill="#EFE7BB" transform="translate(130,279)"/>
<path d="M0 0 C0.33 0 0.66 0 1 0 C1.74936216 10.30372976 -2.62477297 17.20097227 -9 25 C-9.66 24.67 -10.32 24.34 -11 24 C-10.625 21.5625 -10.625 21.5625 -10 19 C-9.34 18.67 -8.68 18.34 -8 18 C-7.505 17.154375 -7.01 16.30875 -6.5 15.4375 C-6.005 14.633125 -5.51 13.82875 -5 13 C-4.34 13 -3.68 13 -3 13 C-3.0928125 12.01 -3.0928125 12.01 -3.1875 11 C-2.93182247 6.90915946 -1.54304956 3.79333016 0 0 Z " fill="#D4E2CA" transform="translate(363,472)"/>
<path d="M0 0 C-3 1 -3 1 -6 0 C-16.24338342 -0.83357737 -25.5596958 1.05940115 -35 5 C-26.39361444 -5.39938255 -11.43448214 -3.86517706 0 0 Z " fill="#EBF2E4" transform="translate(342,435)"/>
<path d="M0 0 C0 0.66 0 1.32 0 2 C-1.134375 1.979375 -2.26875 1.95875 -3.4375 1.9375 C-6.81575674 1.58422523 -6.81575674 1.58422523 -8 3 C-8.26293056 7.03160191 -8.29404844 8.55892734 -6 12 C-2.44327821 13.2188121 -2.44327821 13.2188121 1 14 C0.01 14.495 0.01 14.495 -1 15 C0.65 16.98 2.3 18.96 4 21 C1.0280615 19.87548273 -1.33440687 18.77706209 -4 17 C-4 16.34 -4 15.68 -4 15 C-4.598125 14.79375 -5.19625 14.5875 -5.8125 14.375 C-8.91064331 12.42759563 -9.73689741 10.39043326 -11 7 C-10.92495773 3.77318229 -10.46818363 2.52020404 -8.3125 0.125 C-5.21105827 -1.38380949 -3.27921467 -0.81980367 0 0 Z " fill="#D0E4DB" transform="translate(80,342)"/>
<path d="M0 0 C29.88434094 -0.70685695 29.88434094 -0.70685695 41 7 C41.495 7.99 41.495 7.99 42 9 C39.69 8.67 37.38 8.34 35 8 C34.505 6.515 34.505 6.515 34 5 C22.66054925 3.05923286 11.50158589 1.49857398 0 1 C0 0.67 0 0.34 0 0 Z " fill="#EBC464" transform="translate(372,43)"/>
<path d="M0 0 C8.89264894 2.14111231 15.37229541 8.01151565 22 14 C21.67 14.66 21.34 15.32 21 16 C20.443125 15.38125 19.88625 14.7625 19.3125 14.125 C17.16804656 11.89339142 17.16804656 11.89339142 14.5625 11.0625 C12 10 12 10 9.6875 7.5625 C4.45748283 2.57573944 -0.52587039 1.82892905 -7.5 1.8125 C-9.33377912 1.8601601 -11.16745615 1.91753553 -13 2 C-8.71568559 -0.85620961 -5.02811551 -0.4856278 0 0 Z " fill="#FDF2D0" transform="translate(97,223)"/>
<path d="M0 0 C3.11835545 1.43275791 5.91900364 3.22515181 8.77294922 5.12329102 C15.2654465 9.43774589 21.75326356 13.05693765 29 16 C29 16.33 29 16.66 29 17 C22.03247696 16.66896384 17.92559032 14.55658122 12.25 10.625 C11.50878906 10.13 10.76757812 9.635 10.00390625 9.125 C7.98718289 7.77086259 5.99081235 6.39183562 4 5 C3.16984375 4.43023437 2.3396875 3.86046875 1.484375 3.2734375 C0.99453125 2.85320312 0.5046875 2.43296875 0 2 C0 1.34 0 0.68 0 0 Z " fill="#F6F8F1" transform="translate(295,165)"/>
<path d="M0 0 C0.66 0 1.32 0 2 0 C2.93757025 1.43984002 3.87154047 2.88224098 4.78125 4.33984375 C6.10359439 6.14111416 7.50032785 7.36759394 9.25 8.75 C10.1575 9.4925 11.065 10.235 12 11 C12 11.66 12 12.32 12 13 C12.86625 13.2475 13.7325 13.495 14.625 13.75 C18.18302254 15.06778613 20.9226155 16.80186822 24 19 C21 20 21 20 18.66015625 18.890625 C17.80292969 18.34921875 16.94570312 17.8078125 16.0625 17.25 C15.20785156 16.71890625 14.35320312 16.1878125 13.47265625 15.640625 C8.91101798 12.61394558 8.91101798 12.61394558 7 11 C7 10.34 7 9.68 7 9 C6.01 8.67 5.02 8.34 4 8 C0 2.62857143 0 2.62857143 0 0 Z " fill="#F7F8F2" transform="translate(136,427)"/>
<path d="M0 0 C0.66 0.33 1.32 0.66 2 1 C-1.53244367 4.73015507 -5.23189522 7.75318936 -9.5 10.625 C-10.05558594 11.0065625 -10.61117188 11.388125 -11.18359375 11.78125 C-20.29727909 18 -20.29727909 18 -23 18 C-23 17.34 -23 16.68 -23 16 C-20.9610296 14.6207843 -18.9374203 13.35823314 -16.8125 12.125 C-13.45542582 10.15641469 -10.23822054 8.19203831 -7.19921875 5.7421875 C-5 4 -5 4 -3 4 C-3 3.34 -3 2.68 -3 2 C-2.01 1.34 -1.02 0.68 0 0 Z " fill="#F7F8F3" transform="translate(307,422)"/>
<path d="M0 0 C-0.53367187 0.3403125 -1.06734375 0.680625 -1.6171875 1.03125 C-10.02166034 6.49851953 -17.71712111 12.14640139 -24 20 C-24.66 20 -25.32 20 -26 20 C-23.35970189 11.13049557 -12.19117015 4.94213059 -4.83984375 -0.13671875 C-3 -1 -3 -1 0 0 Z " fill="#F7F8F3" transform="translate(394,314)"/>
<path d="M0 0 C5.37968255 1.79322752 8.07304057 7.34088748 11 12 C12.01870673 14.41272647 12.53989699 16.41192057 13 19 C12.34 19 11.68 19 11 19 C11 18.34 11 17.68 11 17 C10.34 17 9.68 17 9 17 C9 16.01 9 15.02 9 14 C8.34 14 7.68 14 7 14 C7 12.68 7 11.36 7 10 C6.34 10 5.68 10 5 10 C4.67 8.68 4.34 7.36 4 6 C3.34 6 2.68 6 2 6 C1.34 4.02 0.68 2.04 0 0 Z " fill="#F7DC90" transform="translate(427,62)"/>
<path d="M0 0 C0.66 0.33 1.32 0.66 2 1 C0.625 3 0.625 3 -1 5 C-1.66 5 -2.32 5 -3 5 C-3 6.32 -3 7.64 -3 9 C-4.3303125 9.2784375 -4.3303125 9.2784375 -5.6875 9.5625 C-10.18818022 11.51562538 -11.41269699 13.89075404 -14 18 C-14.33 17.34 -14.66 16.68 -15 16 C-14.21654285 14.82780457 -13.42297164 13.66236332 -12.625 12.5 C-12.18414062 11.8503125 -11.74328125 11.200625 -11.2890625 10.53125 C-10.65097656 9.77328125 -10.65097656 9.77328125 -10 9 C-9.34 9 -8.68 9 -8 9 C-7.34 7.68 -6.68 6.36 -6 5 C-5.34 5 -4.68 5 -4 5 C-3.67 4.01 -3.34 3.02 -3 2 C-2.01 1.34 -1.02 0.68 0 0 Z " fill="#F9E29F" transform="translate(340,54)"/>
<path d="M0 0 C4.68318465 5.68672422 8.21477835 11.16354686 11 18 C11.65288627 19.34013497 12.31225595 20.67741528 13 22 C12.34 22 11.68 22 11 22 C5.3060591 16.10270407 0.99300257 8.12347884 0 0 Z " fill="#FCE9B5" transform="translate(318,130)"/>
<path d="M0 0 C1.32 0 2.64 0 4 0 C4.33 2.31 4.66 4.62 5 7 C2.625 7.625 2.625 7.625 0 8 C-0.66 7.34 -1.32 6.68 -2 6 C-1.44444444 1.44444444 -1.44444444 1.44444444 0 0 Z " fill="#BAB64E" transform="translate(302,131)"/>
<path d="M0 0 C5.9821025 1.17041136 9.97767637 3.8426682 14.86328125 7.44140625 C16.90683013 9.02249477 16.90683013 9.02249477 19 10 C19 10.66 19 11.32 19 12 C20.32 12.66 21.64 13.32 23 14 C18.68138238 14 16.05230929 11.56610558 12.625 9.1875 C11.30538769 8.28413259 9.98508908 7.38176677 8.6640625 6.48046875 C8.03918945 6.05169434 7.41431641 5.62291992 6.77050781 5.18115234 C5.2217631 4.147944 3.62560116 3.18654347 2.0234375 2.23828125 C1.35570312 1.82964844 0.68796875 1.42101562 0 1 C0 0.67 0 0.34 0 0 Z " fill="#F7F8F3" transform="translate(240,121)"/>
<path d="M0 0 C1.33617352 0.97528737 2.6688751 1.95533319 4 2.9375 C5.11375 3.75541016 5.11375 3.75541016 6.25 4.58984375 C6.8275 5.05519531 7.405 5.52054687 8 6 C8 6.33 8 6.66 8 7 C6.22825181 6.91276622 4.45752623 6.80458345 2.6875 6.6875 C1.70136719 6.62949219 0.71523437 6.57148438 -0.30078125 6.51171875 C-3.24384457 5.95377187 -4.18182999 5.31459868 -6 3 C-5.195625 2.87625 -4.39125 2.7525 -3.5625 2.625 C-2.716875 2.41875 -1.87125 2.2125 -1 2 C-0.67 1.34 -0.34 0.68 0 0 Z " fill="#3F725D" transform="translate(90,360)"/>
<path d="M0 0 C0.66 0 1.32 0 2 0 C-1.16274917 7.590598 -8.99539206 13.94470067 -16 18 C-16.66 17.67 -17.32 17.34 -18 17 C-16.8803014 15.99406757 -15.7540588 14.9954151 -14.625 14 C-13.99851562 13.443125 -13.37203125 12.88625 -12.7265625 12.3125 C-11 11 -11 11 -9 11 C-9 10.34 -9 9.68 -9 9 C-7.5390625 7.59765625 -7.5390625 7.59765625 -5.625 6.0625 C-3.16098476 4.08013383 -1.79533563 2.69300345 0 0 Z " fill="#F8F9F3" transform="translate(425,288)"/>
<path d="M0 0 C0.66 0.33 1.32 0.66 2 1 C-6.23218614 7.54629181 -6.23218614 7.54629181 -9.75 9.625 C-12.60498509 11.36971311 -14.7093299 13.57843446 -17 16 C-17.99 15.67 -18.98 15.34 -20 15 C-18.6875 13.5 -18.6875 13.5 -17 12 C-16.01 12 -15.02 12 -14 12 C-13.67 11.01 -13.34 10.02 -13 9 C-10.83970719 7.33889835 -8.7049116 5.81056857 -6.4375 4.3125 C-5.82197266 3.89677734 -5.20644531 3.48105469 -4.57226562 3.05273438 C-3.05293329 2.02806838 -1.52707343 1.01309322 0 0 Z " fill="#F9FAF4" transform="translate(168,128)"/>
<path d="M0 0 C0.99 0.33 1.98 0.66 3 1 C2.34 1 1.68 1 1 1 C0.67 1.99 0.34 2.98 0 4 C-3.70554103 8.46844653 -6.51072032 9.81603772 -12 11 C-10.50589642 7.19299032 -8.3813123 5.50238376 -5.0625 3.1875 C-4.18722656 2.56230469 -3.31195313 1.93710937 -2.41015625 1.29296875 C-1.61480469 0.86628906 -0.81945312 0.43960937 0 0 Z " fill="#E6907D" transform="translate(393,404)"/>
<path d="M0 0 C0.66 0.33 1.32 0.66 2 1 C1.01 1.33 0.02 1.66 -1 2 C-1 2.66 -1 3.32 -1 4 C-1.804375 4.474375 -2.60875 4.94875 -3.4375 5.4375 C-6.2918076 6.79983672 -6.2918076 6.79983672 -7 10 C-10.55780196 9.39009109 -13.6828589 8.4216319 -17 7 C-14.65721313 6.30584093 -13.01898847 5.99805246 -10.5625 6.25 C-6.80596209 5.8835085 -5.49639263 3.69347626 -3 1 C-2.01 0.67 -1.02 0.34 0 0 Z " fill="#EEC96B" transform="translate(119,286)"/>
<path d="M0 0 C3.90156658 3.03455179 6.79575992 5.46906205 9 10 C9 10.66 9 11.32 9 12 C9.66 12 10.32 12 11 12 C11 12.66 11 13.32 11 14 C10.01 14 9.02 14 8 14 C8 13.01 8 12.02 8 11 C7.01 11 6.02 11 5 11 C5 9.35 5 7.7 5 6 C3.35 5.67 1.7 5.34 0 5 C0 3.35 0 1.7 0 0 Z " fill="#F2C552" transform="translate(113,234)"/>
<path d="M0 0 C0.66 0.33 1.32 0.66 2 1 C-3.27062797 4.63343018 -8.63957441 7.77056862 -15 9 C-15.99 8.67 -16.98 8.34 -18 8 C-16.35 7.67 -14.7 7.34 -13 7 C-13 6.01 -13 5.02 -13 4 C-12.39671875 3.87882813 -11.7934375 3.75765625 -11.171875 3.6328125 C-10.37265625 3.46523437 -9.5734375 3.29765625 -8.75 3.125 C-7.96109375 2.96257812 -7.1721875 2.80015625 -6.359375 2.6328125 C-3.96665457 2.08251721 -3.96665457 2.08251721 -1.828125 0.8671875 C-1.22484375 0.58101562 -0.6215625 0.29484375 0 0 Z " fill="#FAE1A0" transform="translate(414,163)"/>
<path d="M0 0 C3.16115776 1.36983503 3.9927092 1.9890638 6 5 C6.07905064 7.33199388 6.08798769 9.66832622 6 12 C5.01 12.495 5.01 12.495 4 13 C4 11.68 4 10.36 4 9 C3.34 9 2.68 9 2 9 C2 7.02 2 5.04 2 3 C1.34 3 0.68 3 0 3 C0 2.01 0 1.02 0 0 Z " fill="#508A5E" transform="translate(368,394)"/>
<path d="M0 0 C2.67289025 3.87671106 2.01875653 7.79267603 1.625 12.25 C1.53992188 13.36761719 1.53992188 13.36761719 1.453125 14.5078125 C1.31223742 16.33935108 1.15748116 18.16981352 1 20 C-1.07182145 16.59336868 -1.24183505 13.95164035 -1.1875 10 C-1.18105469 8.96875 -1.17460937 7.9375 -1.16796875 6.875 C-1.02449792 4.41931318 -0.7046041 2.34492245 0 0 Z " fill="#D8E5D1" transform="translate(293,460)"/>
<path d="M0 0 C0.66 0.33 1.32 0.66 2 1 C2.44534366 7.95230941 2.67289916 12.59696035 -2 18 C-2.99 17.67 -3.98 17.34 -5 17 C-4.34 17 -3.68 17 -3 17 C-3.061875 16.05125 -3.12375 15.1025 -3.1875 14.125 C-3.125625 13.09375 -3.06375 12.0625 -3 11 C-2.01 10.34 -1.02 9.68 0 9 C0.36362818 6.79274927 0.36362818 6.79274927 0.1875 4.375 C0.16042969 3.55773437 0.13335937 2.74046875 0.10546875 1.8984375 C0.07066406 1.27195312 0.03585937 0.64546875 0 0 Z " fill="#AECEBA" transform="translate(373,397)"/>
<path d="M0 0 C-3.06718925 2.6915517 -4.92165507 3.3672868 -8.984375 3.29296875 C-9.91894531 3.28330078 -10.85351562 3.27363281 -11.81640625 3.26367188 C-12.78449219 3.23853516 -13.75257813 3.21339844 -14.75 3.1875 C-15.73355469 3.17396484 -16.71710938 3.16042969 -17.73046875 3.14648438 C-20.15420415 3.11118726 -22.57682145 3.06188054 -25 3 C-25 2.67 -25 2.34 -25 2 C-23.95199219 1.93941406 -22.90398437 1.87882812 -21.82421875 1.81640625 C-20.44529952 1.73198262 -19.06639395 1.64733553 -17.6875 1.5625 C-16.99720703 1.52318359 -16.30691406 1.48386719 -15.59570312 1.44335938 C-10.21246005 1.10528131 -5.44211459 -0.10268141 0 0 Z " fill="#DB6E59" transform="translate(435,490)"/>
<path d="M0 0 C0.66 0 1.32 0 2 0 C0.47146065 4.27186525 -1.71509481 7.99326863 -4.125 11.8125 C-4.49753906 12.40998047 -4.87007813 13.00746094 -5.25390625 13.62304688 C-6.1657048 15.08426251 -7.08235976 16.54244585 -8 18 C-8.33 17.01 -8.66 16.02 -9 15 C-7.78654707 12.69912911 -6.54816947 10.6008128 -5.125 8.4375 C-4.37716817 7.26981036 -3.62975415 6.10185301 -2.8828125 4.93359375 C-2.26148438 3.96550781 -1.64015625 2.99742187 -1 2 C-0.67 1.34 -0.34 0.68 0 0 Z " fill="#F7F8F3" transform="translate(345,373)"/>
<path d="M0 0 C2.55763428 3.12934077 4.17140993 6.28567043 5.75 10 C6.19859375 11.03125 6.6471875 12.0625 7.109375 13.125 C8 16 8 16 7 20 C5.35 16.04 3.7 12.08 2 8 C1.34 8 0.68 8 0 8 C0 5.36 0 2.72 0 0 Z " fill="#F1C157" transform="translate(124,248)"/>
<path d="M0 0 C0.5775 0.226875 1.155 0.45375 1.75 0.6875 C0.76 2.1725 0.76 2.1725 -0.25 3.6875 C-1.05824219 3.80996094 -1.86648437 3.93242187 -2.69921875 4.05859375 C-5.45052084 4.43838318 -5.45052084 4.43838318 -6.83203125 6.97265625 C-7.23808594 7.88917969 -7.64414063 8.80570313 -8.0625 9.75 C-8.48144531 10.66910156 -8.90039062 11.58820313 -9.33203125 12.53515625 C-9.63496094 13.24542969 -9.93789062 13.95570313 -10.25 14.6875 C-11.14721507 12.22703904 -11.42742086 11.10958342 -10.39453125 8.65234375 C-4.3158198 -0.59941942 -4.3158198 -0.59941942 0 0 Z " fill="#FBE7B4" transform="translate(84.25,225.3125)"/>
<path d="M0 0 C1.67542976 0.28604898 3.34385343 0.61781233 5 1 C5 2.65 5 4.3 5 6 C3.35 6 1.7 6 0 6 C-0.38218767 4.34385343 -0.71395102 2.67542976 -1 1 C-0.67 0.67 -0.34 0.34 0 0 Z " fill="#D5341F" transform="translate(90,383)"/>
<path d="M0 0 C0.66 0.33 1.32 0.66 2 1 C-6.2095968 10.5344885 -6.2095968 10.5344885 -10 14 C-10.66 14 -11.32 14 -12 14 C-11.67 13.01 -11.34 12.02 -11 11 C-10.34 11 -9.68 11 -9 11 C-8.67 10.01 -8.34 9.02 -8 8 C-6.01739574 6.31267723 -4.0167658 4.64633943 -2 3 C-1.34 2.01 -0.68 1.02 0 0 Z " fill="#F8F9F5" transform="translate(321,408)"/>
<path d="M0 0 C0.66 0 1.32 0 2 0 C0.39369175 4.24292532 -1.5768162 8.27025107 -3.625 12.3125 C-4.11226563 13.28026367 -4.11226563 13.28026367 -4.609375 14.26757812 C-5.40441956 15.84597541 -6.20195634 17.42311694 -7 19 C-7.33 18.34 -7.66 17.68 -8 17 C-7.14694908 14.83971405 -6.19218434 12.71907274 -5.1875 10.625 C-4.64480469 9.48289062 -4.10210937 8.34078125 -3.54296875 7.1640625 C-2.37501711 4.76902242 -1.20100624 2.3785782 0 0 Z " fill="#F8F9F4" transform="translate(362,340)"/>
<path d="M0 0 C1.32 0.66 2.64 1.32 4 2 C-0.95912807 7.13623978 -0.95912807 7.13623978 -4 9 C-4.99 8.67 -5.98 8.34 -7 8 C-4.8614515 5.8614515 -3.86724686 5.57344937 -1 5 C-0.67 3.35 -0.34 1.7 0 0 Z " fill="#E67D6E" transform="translate(444,480)"/>
<path d="M0 0 C0.99 0.33 1.98 0.66 3 1 C2.773125 1.86625 2.54625 2.7325 2.3125 3.625 C1.9367237 7.68338409 2.94742069 9.55166676 5 13 C3.125 12.4375 3.125 12.4375 1 11 C0.25740651 8.68970915 -0.411438 6.354248 -1 4 C-1.66 3.34 -2.32 2.68 -3 2 C-2.01 1.34 -1.02 0.68 0 0 Z " fill="#E6634B" transform="translate(380,469)"/>
<path d="M0 0 C5.70629354 0.42797202 9.41078616 2.84345952 14 6 C10.28125 7.1171875 10.28125 7.1171875 7.75 6.0625 C6.88375 5.5365625 6.88375 5.5365625 6 5 C6 4.34 6 3.68 6 3 C4.02 2.34 2.04 1.68 0 1 C0 0.67 0 0.34 0 0 Z " fill="#F8E29F" transform="translate(400,45)"/>
<path d="M0 0 C1 3 1 3 -0.21484375 5.69921875 C-0.78332031 6.68535156 -1.35179687 7.67148437 -1.9375 8.6875 C-2.50339844 9.68136719 -3.06929688 10.67523438 -3.65234375 11.69921875 C-4.31943359 12.83810547 -4.31943359 12.83810547 -5 14 C-5.33 14 -5.66 14 -6 14 C-6 12.35 -6 10.7 -6 9 C-5.34 9 -4.68 9 -4 9 C-3.71125 8.071875 -3.4225 7.14375 -3.125 6.1875 C-2 3 -2 3 0 0 Z " fill="#F6F8F1" transform="translate(353,359)"/>
<path d="M0 0 C1.65 0 3.3 0 5 0 C6.32 2.31 7.64 4.62 9 7 C5.56072421 5.7580393 2.74792181 4.44259716 0 2 C0 1.34 0 0.68 0 0 Z " fill="#FAE3AF" transform="translate(91,285)"/>
<path d="M0 0 C2.31 0.66 4.62 1.32 7 2 C5.71034824 3.37562854 4.37310707 4.70766393 3 6 C2.34 6 1.68 6 1 6 C1 6.66 1 7.32 1 8 C0.34 7.67 -0.32 7.34 -1 7 C-0.67 4.69 -0.34 2.38 0 0 Z " fill="#E03C26" transform="translate(436,482)"/>
<path d="M0 0 C2.125 0.9375 2.125 0.9375 4 2 C0.39042389 5.2910841 -2.12637153 6.54663921 -7 7 C-6.34 6.34 -5.68 5.68 -5 5 C-4.01 5 -3.02 5 -2 5 C-2 3.68 -2 2.36 -2 1 C-1.34 0.67 -0.68 0.34 0 0 Z " fill="#D9E6CF" transform="translate(347,497)"/>
<path d="M0 0 C6.0546875 -0.1953125 6.0546875 -0.1953125 8 0 C8.66 0.66 9.32 1.32 10 2 C7.95301586 4.04698414 3.69588759 3.70045693 1 4 C0.67 2.68 0.34 1.36 0 0 Z " fill="#4B895E" transform="translate(358,392)"/>
<path d="M0 0 C0.33 0 0.66 0 1 0 C1.75 2.75 1.75 2.75 2 6 C0.0625 8.375 0.0625 8.375 -2 10 C-2.99 9.67 -3.98 9.34 -5 9 C-4.0409375 7.88625 -4.0409375 7.88625 -3.0625 6.75 C-1.21666593 4.2888879 -0.43930826 2.96533074 0 0 Z " fill="#EEE9CA" transform="translate(134,272)"/>
<path d="M0 0 C1.31625194 2.63250388 0.74813658 3.80179056 0.0625 6.625 C-0.13214844 7.44226563 -0.32679688 8.25953125 -0.52734375 9.1015625 C-0.68332031 9.72804688 -0.83929688 10.35453125 -1 11 C-1.99 10.67 -2.98 10.34 -4 10 C-3.43454163 6.04179141 -2.19097652 3.3340947 0 0 Z " fill="#EC978B" transform="translate(375,422)"/>
<path d="M0 0 C2.97 0.495 2.97 0.495 6 1 C5.01 1.495 5.01 1.495 4 2 C5.65 3.98 7.3 5.96 9 8 C6.0280615 6.87548273 3.66559313 5.77706209 1 4 C0.3125 1.875 0.3125 1.875 0 0 Z " fill="#8FB7A5" transform="translate(75,355)"/>
<path d="M0 0 C2.475 0.495 2.475 0.495 5 1 C4.67 2.32 4.34 3.64 4 5 C2.68 5 1.36 5 0 5 C0 3.35 0 1.7 0 0 Z " fill="#19744E" transform="translate(73,346)"/>
<path d="M0 0 C-1.2748209 2.84383123 -2.45137078 5.13754018 -5 7 C-7.1015625 6.57421875 -7.1015625 6.57421875 -9 6 C-7.8803014 4.99406757 -6.7540588 3.9954151 -5.625 3 C-4.68527344 2.1646875 -4.68527344 2.1646875 -3.7265625 1.3125 C-2 0 -2 0 0 0 Z " fill="#F1E0A5" transform="translate(130,279)"/>
<path d="M0 0 C2.63978826 3.18595135 5.10498388 6.30970546 7 10 C6.67 10.66 6.34 11.32 6 12 C5.67 11.01 5.34 10.02 5 9 C4.34 9 3.68 9 3 9 C0.56839395 5.63316085 0 4.26649636 0 0 Z " fill="#F6DB91" transform="translate(318,130)"/>
<path d="M0 0 C5.27323808 -0.68041782 9.39388711 1.75213663 14 4 C10.22134307 5.25955231 8.96588214 4.48087189 5.3125 3.0625 C4.31863281 2.68222656 3.32476562 2.30195313 2.30078125 1.91015625 C1.54152344 1.60980469 0.78226563 1.30945313 0 1 C0 0.67 0 0.34 0 0 Z " fill="#F8F9F3" transform="translate(160,447)"/>
<path d="M0 0 C8.57142857 0.71428571 8.57142857 0.71428571 12 4 C10.35 4.33 8.7 4.66 7 5 C6.67 4.34 6.34 3.68 6 3 C4.02111039 2.27306096 2.02045442 1.60183749 0 1 C0 0.67 0 0.34 0 0 Z " fill="#F0A297" transform="translate(425,400)"/>
<path d="M0 0 C0.66 0.66 1.32 1.32 2 2 C1.01 2 0.02 2 -1 2 C-0.67 1.34 -0.34 0.68 0 0 Z M-6 3 C-4.02 3 -2.04 3 0 3 C0 3.66 0 4.32 0 5 C0.99 5.33 1.98 5.66 3 6 C-2.53846154 6.36923077 -2.53846154 6.36923077 -4.875 4.5 C-5.24625 4.005 -5.6175 3.51 -6 3 Z " fill="#74A18E" transform="translate(90,360)"/>
<path d="M0 0 C9.59453303 0.59453303 9.59453303 0.59453303 13 4 C8.28596212 3.52060632 4.33420699 3.03165952 0 1 C0 0.67 0 0.34 0 0 Z " fill="#FBEBB7" transform="translate(355,169)"/>
<path d="M0 0 C0.66 0 1.32 0 2 0 C2.33 0.66 2.66 1.32 3 2 C4.88764903 2.68472665 4.88764903 2.68472665 7.0625 3.125 C7.79597656 3.29257813 8.52945312 3.46015625 9.28515625 3.6328125 C9.85105469 3.75398437 10.41695313 3.87515625 11 4 C10.34 4.66 9.68 5.32 9 6 C6.0625 5.9375 6.0625 5.9375 3 5 C1.125 2.4375 1.125 2.4375 0 0 Z " fill="#F7DC88" transform="translate(331,152)"/>
<path d="M0 0 C1.98 1.65 3.96 3.3 6 5 C5.67 5.66 5.34 6.32 5 7 C2.525 6.01 2.525 6.01 0 5 C0 3.35 0 1.7 0 0 Z " fill="#F3CA67" transform="translate(113,234)"/>
<path d="M0 0 C0.66 0 1.32 0 2 0 C0.79157144 4.43090471 -0.51668565 6.98112756 -4 10 C-3.29445932 6.33118845 -1.72264494 3.29549466 0 0 Z " fill="#F5F7F1" transform="translate(431,278)"/>
<path d="M0 0 C0.99 0.33 1.98 0.66 3 1 C2.34 1 1.68 1 1 1 C0.67 1.99 0.34 2.98 0 4 C-1.98 4.33 -3.96 4.66 -6 5 C-2.25 1.125 -2.25 1.125 0 0 Z " fill="#F8E3A2" transform="translate(348,49)"/>
<path d="M0 0 C1.65 0 3.3 0 5 0 C4.43628586 3.26954202 3.50037734 4.82575883 1 7 C0.67 4.69 0.34 2.38 0 0 Z " fill="#EA7A6D" transform="translate(454,467)"/>
<path d="M0 0 C2.97 0.495 2.97 0.495 6 1 C6 1.99 6 2.98 6 4 C4.35 3.67 2.7 3.34 1 3 C0.67 2.01 0.34 1.02 0 0 Z " fill="#1D774A" transform="translate(77,352)"/>
<path d="M0 0 C1.98 1.65 3.96 3.3 6 5 C5.67 6.32 5.34 7.64 5 9 C4.16094435 7.87926138 3.32892169 6.75325453 2.5 5.625 C2.0359375 4.99851562 1.571875 4.37203125 1.09375 3.7265625 C0 2 0 2 0 0 Z " fill="#EBA395" transform="translate(374,468)"/>
<path d="M0 0 C3.39914975 1.13304992 4.05254451 2.12518475 6 5 C5.67 5.66 5.34 6.32 5 7 C4.01 6.67 3.02 6.34 2 6 C0.8125 2.9375 0.8125 2.9375 0 0 Z " fill="#F9E3A8" transform="translate(427,62)"/>
</svg>
