<?xml version="1.0" encoding="UTF-8"?>
<svg version="1.1" xmlns="http://www.w3.org/2000/svg" width="518" height="482">
<path d="M0 0 C1.24112549 0.3700415 1.24112549 0.3700415 2.50732422 0.74755859 C23.4448834 7.19627932 43.63953213 17.00066999 59 33 C59.94875 33.763125 60.8975 34.52625 61.875 35.3125 C69.57022442 41.67961462 75.19180337 50.08059817 80.79638672 58.2578125 C81.86354932 59.80249249 82.96275522 61.32492589 84.06640625 62.84375 C89.08871445 70.23009418 92.18873724 78.1012139 95.3125 86.4375 C95.73337891 87.55664795 96.15425781 88.6757959 96.58789062 89.82885742 C110.16112016 127.37107705 105.12714006 166.21800465 89.00976562 201.85986328 C85.54387268 209.20561221 81.27577671 215.99113378 76.26171875 222.37890625 C73.74592281 225.30850066 73.74592281 225.30850066 73.13647461 228.93505859 C74.24822704 231.59358336 75.73870352 233.04494143 77.81640625 235.0390625 C78.58017578 235.78414062 79.34394531 236.52921875 80.13085938 237.296875 C80.93330078 238.06515625 81.73574219 238.8334375 82.5625 239.625 C84.15151541 241.15431619 85.73639034 242.68795022 87.31640625 244.2265625 C88.02224854 244.90283691 88.72809082 245.57911133 89.45532227 246.27587891 C91 248 91 248 91 250 C91.66 249.67 92.32 249.34 93 249 C107.87049963 247.99706098 107.87049963 247.99706098 114 252 C116.54348151 254.50956842 118.77843487 257.20496108 121 260 C124.69610794 264.53789168 128.53788565 268.45166 132.9921875 272.25390625 C138.09465085 276.69126251 142.56459616 281.61600467 146.95703125 286.7421875 C149.97573864 290.07834978 153.19686007 293.20655771 156.44433594 296.31933594 C157.66585898 297.51008584 158.83762512 298.75144543 160 300 C160 300.66 160 301.32 160 302 C160.89537476 302.40641724 160.89537476 302.40641724 161.80883789 302.82104492 C163.97094914 303.98436918 165.35093986 305.11926454 167.05859375 306.86328125 C167.60966797 307.42080078 168.16074219 307.97832031 168.72851562 308.55273438 C169.29248047 309.13345703 169.85644531 309.71417969 170.4375 310.3125 C170.99759766 310.88162109 171.55769531 311.45074219 172.13476562 312.03710938 C173.24368465 313.16414377 174.35080699 314.29294901 175.45605469 315.42358398 C178.56009431 318.59290464 181.71053835 321.71527988 184.8671875 324.83203125 C189.87830148 329.79036194 194.79095259 334.74701005 199.34375 340.13671875 C201.78954061 342.88823319 204.48709504 345.36520486 207.203125 347.84765625 C211.99250942 353.58450585 212.50033083 359.24622568 212.4375 366.4375 C212.45748047 367.24509766 212.47746094 368.05269531 212.49804688 368.88476562 C212.49228369 376.03688189 210.37536305 381.14956434 205.8125 386.625 C197.36208854 393.76090301 190.49607557 397.12716713 179.390625 397.4609375 C166.94995602 395.76969448 160.08823884 387.89613596 151.70703125 379.328125 C150.349287 377.96170918 148.99027035 376.59655661 147.63005066 375.23260498 C144.06657639 371.65197647 140.52188514 368.05329305 136.98052979 364.45080566 C134.09866574 361.52537412 131.20383936 358.61296535 128.30818653 355.70119095 C124.83273127 352.20603158 121.36267588 348.70553731 117.89453125 345.203125 C117.24181559 344.54398354 116.58909992 343.88484207 115.916605 343.20572662 C103.37960047 330.5260899 103.37960047 330.5260899 98.33573914 324.49481201 C96.82299523 322.72857054 96.82299523 322.72857054 94 320.5 C90.88466793 317.90388994 88.41609498 315.1255716 85.79296875 312.05078125 C82.2055867 307.94756649 78.25464128 304.19628588 74.3125 300.4375 C69.16477977 295.01152462 66.85645839 290.56018363 66.875 283.125 C66.87242187 282.09632813 66.86984375 281.06765625 66.8671875 280.0078125 C67 277 67 277 67.8515625 274.48046875 C68.29600698 271.7175183 68.29600698 271.7175183 65.71875 269.16796875 C64.6596412 268.1597722 63.58577851 267.16691654 62.5 266.1875 C61.38872561 265.13611855 60.27934682 264.08272989 59.171875 263.02734375 C58.62853516 262.5154248 58.08519531 262.00350586 57.52539062 261.47607422 C54.46506554 258.51469051 51.72759351 255.26542886 49 252 C44.89742456 252.61187555 41.91072875 254.91074137 38.5625 257.1875 C18.68376957 270.22197324 -6.26089051 277.86793264 -30 279 C-31.39992187 279.07927734 -31.39992187 279.07927734 -32.828125 279.16015625 C-49.56952355 279.65381287 -66.13263397 276.05243859 -82 271 C-83.01320313 270.68160156 -84.02640625 270.36320312 -85.0703125 270.03515625 C-97.92923502 265.66762134 -109.16340013 259.05084155 -120 251 C-121.38058594 249.97519531 -121.38058594 249.97519531 -122.7890625 248.9296875 C-127.56228797 245.25242921 -131.58500872 241.42663866 -135.42578125 236.7890625 C-137.09953091 234.77789566 -137.09953091 234.77789566 -139.9375 232.6875 C-148.264564 226.03910142 -153.68833127 215.03915556 -159 206 C-159.67160156 204.90558594 -160.34320313 203.81117188 -161.03515625 202.68359375 C-173.30310985 181.9287841 -177.79165413 155.85757677 -177 132 C-176.97164062 130.99066406 -176.94328125 129.98132813 -176.9140625 128.94140625 C-175.7185549 104.31964248 -168.0524796 76.1939326 -152 57 C-151.01759767 55.25702812 -150.03544845 53.51389175 -149.0625 51.765625 C-146.80050096 48.00671483 -144.08029173 44.85286189 -140.625 42.125 C-138.26725197 40.21634683 -136.51735928 38.3610708 -134.5625 36.0625 C-131.61956587 32.63224129 -128.57562988 29.7889913 -125 27 C-124.34386719 26.46761719 -123.68773437 25.93523437 -123.01171875 25.38671875 C-89.53466921 -1.43059802 -41.49388038 -12.3858399 0 0 Z M-89.484375 41.484375 C-92 43 -92 43 -94.37890625 43.83203125 C-98.21612911 45.54191148 -101.05761757 48.17043914 -104.1875 50.9375 C-104.85168945 51.52233154 -105.51587891 52.10716309 -106.20019531 52.7097168 C-123.15283849 67.84013573 -134.21152428 84.36251308 -141 106 C-141.2386377 106.74975098 -141.47727539 107.49950195 -141.72314453 108.27197266 C-150.26577164 136.32970025 -144.52725152 166.79082875 -131.2421875 192.38671875 C-127.14124422 199.07221 -122.04398653 205.01434501 -117 211 C-116.38511719 211.82628906 -115.77023438 212.65257812 -115.13671875 213.50390625 C-112.57697583 216.49417266 -109.65457136 218.74843235 -106.5 221.0625 C-100.39136455 225.58510652 -100.39136455 225.58510652 -98.05078125 228.06640625 C-95.27068453 230.6876403 -92.09415531 232.22909707 -88.6875 233.875 C-87.98181885 234.21942139 -87.2761377 234.56384277 -86.54907227 234.91870117 C-60.88177265 247.27300293 -32.70291234 252.1743411 -5 243 C-3.87078125 242.62617188 -2.7415625 242.25234375 -1.578125 241.8671875 C1.67622483 240.69157309 4.83116157 239.3888119 8 238 C9.10601562 237.53207031 10.21203125 237.06414062 11.3515625 236.58203125 C35.15969704 225.69908036 55.48818014 203.76032534 64.99414062 179.45849609 C73.71425032 155.7103867 77.00589871 130.4917296 69 106 C68.649375 104.90429688 68.29875 103.80859375 67.9375 102.6796875 C56.8299341 71.28538667 35.29617577 49.75816831 5.70703125 35.40234375 C-24.57510154 22.03897341 -61.35001922 23.63915505 -89.484375 41.484375 Z " fill="#104B3D" transform="translate(220,42)"/>
<path d="M0 0 C0.48984375 0.65613281 0.9796875 1.31226563 1.484375 1.98828125 C5.48831306 6.78181579 10.03124079 11.03207907 14.5078125 15.38085938 C15.21164062 16.07373047 15.91546875 16.76660156 16.640625 17.48046875 C17.60790527 18.42249146 17.60790527 18.42249146 18.59472656 19.38354492 C20 21 20 21 20 23 C20.66 22.67 21.32 22.34 22 22 C36.87049963 20.99706098 36.87049963 20.99706098 43 25 C45.54348151 27.50956842 47.77843487 30.20496108 50 33 C53.69610794 37.53789168 57.53788565 41.45166 61.9921875 45.25390625 C67.09465085 49.69126251 71.56459616 54.61600467 75.95703125 59.7421875 C78.97573864 63.07834978 82.19686007 66.20655771 85.44433594 69.31933594 C86.66585898 70.51008584 87.83762512 71.75144543 89 73 C89 73.66 89 74.32 89 75 C89.5969165 75.27094482 90.19383301 75.54188965 90.80883789 75.82104492 C92.97094914 76.98436918 94.35093986 78.11926454 96.05859375 79.86328125 C96.60966797 80.42080078 97.16074219 80.97832031 97.72851562 81.55273438 C98.57446289 82.42381836 98.57446289 82.42381836 99.4375 83.3125 C99.99759766 83.88162109 100.55769531 84.45074219 101.13476562 85.03710938 C102.24368465 86.16414377 103.35080699 87.29294901 104.45605469 88.42358398 C107.56009431 91.59290464 110.71053835 94.71527988 113.8671875 97.83203125 C118.87830148 102.79036194 123.79095259 107.74701005 128.34375 113.13671875 C130.78954061 115.88823319 133.48709504 118.36520486 136.203125 120.84765625 C140.99250942 126.58450585 141.50033083 132.24622568 141.4375 139.4375 C141.45748047 140.24509766 141.47746094 141.05269531 141.49804688 141.88476562 C141.49228369 149.03688189 139.37536305 154.14956434 134.8125 159.625 C126.36208854 166.76090301 119.49607557 170.12716713 108.390625 170.4609375 C95.94995602 168.76969448 89.08823884 160.89613596 80.70703125 152.328125 C79.349287 150.96170918 77.99027035 149.59655661 76.63005066 148.23260498 C73.06657639 144.65197647 69.52188514 141.05329305 65.98052979 137.45080566 C63.09866574 134.52537412 60.20383936 131.61296535 57.30818653 128.70119095 C53.83273127 125.20603158 50.36267588 121.70553731 46.89453125 118.203125 C46.24181559 117.54398354 45.58909992 116.88484207 44.916605 116.20572662 C32.37960047 103.5260899 32.37960047 103.5260899 27.33573914 97.49481201 C25.82299523 95.72857054 25.82299523 95.72857054 23 93.5 C19.88466793 90.90388994 17.41609498 88.1255716 14.79296875 85.05078125 C11.2055867 80.94756649 7.25464128 77.19628588 3.3125 73.4375 C-1.83522023 68.01152462 -4.14354161 63.56018363 -4.125 56.125 C-4.12757813 55.09632813 -4.13015625 54.06765625 -4.1328125 53.0078125 C-4 50 -4 50 -3.1484375 47.48046875 C-2.70399302 44.7175183 -2.70399302 44.7175183 -5.28125 42.16796875 C-6.34036684 41.15978065 -7.41423691 40.16693363 -8.5 39.1875 C-9.61386995 38.13350503 -10.72585401 37.07751344 -11.8359375 36.01953125 C-12.37959961 35.50729004 -12.92326172 34.99504883 -13.48339844 34.46728516 C-16.06414108 31.97046235 -18.37505789 29.2592601 -20.6953125 26.5234375 C-21.74271981 25.30041699 -22.86139532 24.13860468 -24 23 C-23.29875 22.443125 -22.5975 21.88625 -21.875 21.3125 C-13.80196414 14.81897116 -6.4761867 8.09523338 0 0 Z " fill="#50A037" transform="translate(291,269)"/>
<path d="M0 0 C0.48855469 0.66 0.97710937 1.32 1.48046875 2 C3.54426678 4.45735952 5.60956365 6.60668207 7.92578125 8.8125 C8.63927734 9.49570312 9.35277344 10.17890625 10.08789062 10.8828125 C11.58124395 12.30405482 13.08403779 13.71543795 14.59570312 15.1171875 C15.30275391 15.80039062 16.00980469 16.48359375 16.73828125 17.1875 C17.38837158 17.79980469 18.03846191 18.41210938 18.70825195 19.04296875 C20 21 20 21 19.96533203 23.45239258 C18.77062764 26.60533652 17.23058002 28.22504293 14.81640625 30.57421875 C13.97142578 31.40630859 13.12644531 32.23839844 12.25585938 33.09570312 C11.36705078 33.95099609 10.47824219 34.80628906 9.5625 35.6875 C8.67755859 36.55439453 7.79261719 37.42128906 6.88085938 38.31445312 C5.24347258 39.9169223 3.60202393 41.51525863 1.95532227 43.1081543 C0.62601924 44.39430352 -0.69209588 45.69209588 -2 47 C-2.53173828 46.37738281 -2.53173828 46.37738281 -3.07421875 45.7421875 C-9.7958115 37.96271696 -16.72814472 30.27185528 -24 23 C-23.29875 22.443125 -22.5975 21.88625 -21.875 21.3125 C-13.80196414 14.81897116 -6.4761867 8.09523338 0 0 Z " fill="#68A73C" transform="translate(291,269)"/>
<path d="M0 0 C4.57040454 1.43139043 7.54508628 3.99580022 10.875 7.3125 C11.38546875 7.78623047 11.8959375 8.25996094 12.421875 8.74804688 C13.8671875 10.17578125 13.8671875 10.17578125 16 13 C15.80217783 17.49437276 13.96167953 19.51362716 10.81640625 22.57421875 C9.97142578 23.40630859 9.12644531 24.23839844 8.25585938 25.09570312 C7.36705078 25.95099609 6.47824219 26.80628906 5.5625 27.6875 C4.67755859 28.55439453 3.79261719 29.42128906 2.88085938 30.31445312 C1.24347258 31.9169223 -0.39797607 33.51525863 -2.04467773 35.1081543 C-3.37398076 36.39430352 -4.69209588 37.69209588 -6 39 C-8.31 36.36 -10.62 33.72 -13 31 C-12.2575 30.4225 -11.515 29.845 -10.75 29.25 C-5.84723845 25.3688654 -5.84723845 25.3688654 -3 20 C-1.66666667 19.66666667 -0.33333333 19.33333333 1 19 C1.33 18.01 1.66 17.02 2 16 C3.96722008 14.61876037 5.96868328 13.28511874 8 12 C8.66 11.34 9.32 10.68 10 10 C7.69 9.01 5.38 8.02 3 7 C3 6.34 3 5.68 3 5 C2.505 4.505 2.01 4.01 1.5 3.5 C1.005 3.005 0.51 2.51 0 2 C0 1.34 0 0.68 0 0 Z " fill="#7EB337" transform="translate(295,277)"/>
<path d="M0 0 C0.33 0 0.66 0 1 0 C1.33 2.31 1.66 4.62 2 7 C1.67 7 1.34 7 1 7 C1 18.22 1 29.44 1 41 C1.33 41 1.66 41 2 41 C2.2236337 42.41433206 2.42826476 43.83167618 2.625 45.25 C2.74101563 46.03890625 2.85703125 46.8278125 2.9765625 47.640625 C3.00319395 50.32152459 2.36592084 51.72694089 1 54 C-2.62333021 36.76279802 -3.86839197 17.32649511 0 0 Z " fill="#40675D" transform="translate(45,155)"/>
<path d="M0 0 C0.66 0 1.32 0 2 0 C0.42443765 3.84938529 -2.04353587 6.24588522 -5 9.125 C-5.886875 9.99382812 -6.77375 10.86265625 -7.6875 11.7578125 C-8.8321875 12.86769531 -8.8321875 12.86769531 -10 14 C-10.66 14.66 -11.32 15.32 -12 16 C-14.31 13.36 -16.62 10.72 -19 8 C-18.34 7.34 -17.68 6.68 -17 6 C-13.41411676 6.38766305 -10.30012079 7.58566252 -7 9 C-7 8.34 -7 7.68 -7 7 C-5.01739574 5.31267723 -3.0167658 3.64633943 -1 2 C-0.67 1.34 -0.34 0.68 0 0 Z " fill="#86BA4A" transform="translate(301,300)"/>
<path d="M0 0 C2.31 0.33 4.62 0.66 7 1 C7 1.33 7 1.66 7 2 C-8.00905094 4.99019777 -22.77396799 5.92473542 -38 4 C-38 3.67 -38 3.34 -38 3 C-29.09 2.67 -20.18 2.34 -11 2 C-11 1.67 -11 1.34 -11 1 C-7.37 1 -3.74 1 0 1 C0 0.67 0 0.34 0 0 Z " fill="#617975" transform="translate(205,316)"/>
<path d="M0 0 C1.625 1.6875 1.625 1.6875 3 4 C2.4375 6.6875 2.4375 6.6875 1 9 C-0.32303717 9.3721042 -1.65737935 9.70630173 -3 10 C-4.38495802 12.14668494 -5 13.43871412 -5 16 C-5.66 16 -6.32 16 -7 16 C-7 16.66 -7 17.32 -7 18 C-7.99 18.33 -8.98 18.66 -10 19 C-8.14287454 11.94292325 -4.00656677 6.00985015 0 0 Z " fill="#1D493E" transform="translate(67,100)"/>
<path d="M0 0 C8.91765652 0.23080993 16.70624517 3.00318992 25 6 C23.421875 7.1171875 23.421875 7.1171875 21 8 C17.765625 7.3203125 17.765625 7.3203125 14.25 6.125 C13.07953125 5.73570313 11.9090625 5.34640625 10.703125 4.9453125 C9.81109375 4.63335937 8.9190625 4.32140625 8 4 C8 3.34 8 2.68 8 2 C6.68 2 5.36 2 4 2 C4 2.66 4 3.32 4 4 C3.01 4.33 2.02 4.66 1 5 C0.67 3.35 0.34 1.7 0 0 Z " fill="#3F6056" transform="translate(207,40)"/>
<path d="M0 0 C1.32 0.66 2.64 1.32 4 2 C-9.32097335 11.65005794 -9.32097335 11.65005794 -15 14 C-15.66 13.67 -16.32 13.34 -17 13 C-17 12.34 -17 11.68 -17 11 C-13.535 10.505 -13.535 10.505 -10 10 C-9.67 9.01 -9.34 8.02 -9 7 C-8.01 6.67 -7.02 6.34 -6 6 C-6 5.34 -6 4.68 -6 4 C-4.68 4 -3.36 4 -2 4 C-1.34 2.68 -0.68 1.36 0 0 Z " fill="#245045" transform="translate(262,292)"/>
<path d="M0 0 C3.45201639 1.47721422 5.64961936 3.43794001 8.25 6.125 C8.95640625 6.84945313 9.6628125 7.57390625 10.390625 8.3203125 C11.18726563 9.15175781 11.18726563 9.15175781 12 10 C10.1875 11.5625 10.1875 11.5625 8 13 C7.01 12.67 6.02 12.34 5 12 C4.87625 11.21625 4.7525 10.4325 4.625 9.625 C4.20882007 6.85942178 4.20882007 6.85942178 2 5 C1.34 5 0.68 5 0 5 C0 3.35 0 1.7 0 0 Z " fill="#73B260" transform="translate(380,344)"/>
<path d="M0 0 C0 0.66 0 1.32 0 2 C0.99 1.67 1.98 1.34 3 1 C3.99 1.99 4.98 2.98 6 4 C-5.88 3.34 -17.76 2.68 -30 2 C-30 1.67 -30 1.34 -30 1 C-25.5625336 0.83243072 -21.12502168 0.66609843 -16.6875 0.5 C-15.42486328 0.45230469 -14.16222656 0.40460938 -12.86132812 0.35546875 C-11.65283203 0.31035156 -10.44433594 0.26523438 -9.19921875 0.21875 C-8.08377686 0.17685547 -6.96833496 0.13496094 -5.8190918 0.09179688 C-3.88018086 0.02866095 -1.9399386 0 0 0 Z " fill="#0C2B23" transform="translate(202,67)"/>
<path d="M0 0 C3.26008643 3.16952847 6.22237877 6.39937989 9 10 C8.01 10.33 7.02 10.66 6 11 C5.34 10.34 4.68 9.68 4 9 C3.01 9 2.02 9 1 9 C0.67 7.68 0.34 6.36 0 5 C-0.66 5 -1.32 5 -2 5 C-1.34 3.35 -0.68 1.7 0 0 Z " fill="#63A750" transform="translate(411,374)"/>
<path d="M0 0 C0.66 0 1.32 0 2 0 C1.5003731 7.49440349 -0.43764478 13.95650263 -3 21 C-3.33 21 -3.66 21 -4 21 C-4.25 13.375 -4.25 13.375 -2 10 C-1.56261304 8.28555111 -1.19151312 6.55332216 -0.875 4.8125 C-0.70742188 3.91144531 -0.53984375 3.01039063 -0.3671875 2.08203125 C-0.24601562 1.39496094 -0.12484375 0.70789063 0 0 Z " fill="#3F6459" transform="translate(319,206)"/>
<path d="M0 0 C3.89006773 1.38780795 6.96558708 3.2152227 10.3125 5.625 C11.19550781 6.25664063 12.07851563 6.88828125 12.98828125 7.5390625 C13.98408203 8.26222656 13.98408203 8.26222656 15 9 C14.01 9.33 13.02 9.66 12 10 C7.33333333 7.66666667 7.33333333 7.66666667 6 5 C3.47266765 4.34444881 3.47266765 4.34444881 1 4 C1 4.66 1 5.32 1 6 C-0.32 6.33 -1.64 6.66 -3 7 C-3 6.01 -3 5.02 -3 4 C-1.68 3.34 -0.36 2.68 1 2 C0.67 1.34 0.34 0.68 0 0 Z " fill="#4A7569" transform="translate(251,55)"/>
<path d="M0 0 C2.475 0.99 2.475 0.99 5 2 C4.67 3.32 4.34 4.64 4 6 C4.66 6 5.32 6 6 6 C10 10.47058824 10 10.47058824 10 13 C7.19099964 12.64582169 6.18543998 12.21351117 4.296875 10.0390625 C3.78640625 9.24242187 3.2759375 8.44578125 2.75 7.625 C2.22921875 6.83351563 1.7084375 6.04203125 1.171875 5.2265625 C0 3 0 3 0 0 Z " fill="#67A554" transform="translate(288,331)"/>
<path d="M0 0 C0 4.91886814 -3.68826689 7.6051539 -7 11 C-9.27699716 13.08798002 -11.60502418 15.0449177 -14 17 C-14.66 16.67 -15.32 16.34 -16 16 C-10.72 10.72 -5.44 5.44 0 0 Z " fill="#5AA230" transform="translate(310,294)"/>
<path d="M0 0 C4.04161955 1.34484714 6.38678154 3.0505162 9.3125 6.125 C10.00988281 6.84945313 10.70726562 7.57390625 11.42578125 8.3203125 C11.94527344 8.87460937 12.46476562 9.42890625 13 10 C9.13304322 10 6.4911548 8.58090029 3 7 C3 6.34 3 5.68 3 5 C2.505 4.505 2.01 4.01 1.5 3.5 C1.005 3.005 0.51 2.51 0 2 C0 1.34 0 0.68 0 0 Z " fill="#89B763" transform="translate(295,277)"/>
<path d="M0 0 C-0.99 0.33 -1.98 0.66 -3 1 C-3 1.66 -3 2.32 -3 3 C-4.72672034 3.36590746 -6.45653655 3.71722195 -8.1875 4.0625 C-9.15042969 4.25972656 -10.11335937 4.45695312 -11.10546875 4.66015625 C-14.03610862 5.00423947 -16.16307068 4.74164697 -19 4 C-13.08598549 0.81553065 -6.6951108 -0.34333902 0 0 Z " fill="#566E69" transform="translate(166,39)"/>
<path d="M0 0 C0.33 0.99 0.66 1.98 1 3 C1.99 2.67 2.98 2.34 4 2 C4.33 2.99 4.66 3.98 5 5 C4.67 5.66 4.34 6.32 4 7 C5.65 7.33 7.3 7.66 9 8 C9 9.98 9 11.96 9 14 C5.0747975 10.29909479 2.05419844 6.45040344 -1 2 C-0.67 1.34 -0.34 0.68 0 0 Z " fill="#61807A" transform="translate(70,259)"/>
<path d="M0 0 C0.33 0.66 0.66 1.32 1 2 C1.99 1.67 2.98 1.34 4 1 C4.70173653 5.38585329 5.10834375 9.55790643 5 14 C3.45713453 11.68570179 2.10007245 9.45428972 0.8125 7 C0.44769531 6.319375 0.08289063 5.63875 -0.29296875 4.9375 C-1 3 -1 3 0 0 Z " fill="#406A62" transform="translate(282,128)"/>
<path d="M0 0 C2.64 0 5.28 0 8 0 C6.5361389 4.39158329 4.02168662 4.87947433 0 7 C-1.04449911 3.86650268 -0.93423645 3.01031744 0 0 Z " fill="#66A451" transform="translate(418,427)"/>
<path d="M0 0 C0.33 0 0.66 0 1 0 C1.33 3.3 1.66 6.6 2 10 C2.33 10 2.66 10 3 10 C3.2236337 11.41433206 3.42826476 12.83167618 3.625 14.25 C3.74101563 15.03890625 3.85703125 15.8278125 3.9765625 16.640625 C4.00319395 19.32152459 3.36592084 20.72694089 2 23 C0.29005228 15.2441657 -0.24923458 7.93396732 0 0 Z " fill="#476B64" transform="translate(44,186)"/>
<path d="M0 0 C0.66 1.32 1.32 2.64 2 4 C1.13375 4.53625 0.2675 5.0725 -0.625 5.625 C-4.22123063 8.00536218 -7.02798106 10.88645635 -10 14 C-10.66 13.67 -11.32 13.34 -12 13 C-11.55269531 12.56429688 -11.10539062 12.12859375 -10.64453125 11.6796875 C-6.85478464 7.94650427 -3.33540417 4.143987 0 0 Z " fill="#6BA85C" transform="translate(291,269)"/>
<path d="M0 0 C2.33218272 0.84806644 3.44954313 1.8950996 5.0625 3.75 C4.7325 4.41 4.4025 5.07 4.0625 5.75 C2.4125 4.76 0.7625 3.77 -0.9375 2.75 C-1.5975 4.07 -2.2575 5.39 -2.9375 6.75 C-3.9275 6.09 -4.9175 5.43 -5.9375 4.75 C-3.5835177 -0.46238938 -3.5835177 -0.46238938 0 0 Z " fill="#619D3D" transform="translate(292.9375,273.25)"/>
<path d="M0 0 C1.32 1.32 2.64 2.64 4 4 C3.34 5.98 2.68 7.96 2 10 C0.68 9.01 -0.64 8.02 -2 7 C-1.34 4.69 -0.68 2.38 0 0 Z " fill="#66AD50" transform="translate(426,390)"/>
<path d="M0 0 C2.31 0.33 4.62 0.66 7 1 C7 1.33 7 1.66 7 2 C0.93184478 3.22899346 -4.79895188 4.27560214 -11 4 C-11 3.01 -11 2.02 -11 1 C-7.37 1 -3.74 1 0 1 C0 0.67 0 0.34 0 0 Z " fill="#4E7167" transform="translate(205,316)"/>
<path d="M0 0 C0.66 0.33 1.32 0.66 2 1 C-1.2893401 5.75126904 -1.2893401 5.75126904 -4.5 6.875 C-6.93385908 6.99669295 -8.69954095 6.76681968 -11 6 C-8.66460191 4.44306794 -6.42031244 3.09799354 -3.9375 1.8125 C-2.89916016 1.26529297 -2.89916016 1.26529297 -1.83984375 0.70703125 C-1.23269531 0.47371094 -0.62554687 0.24039062 0 0 Z " fill="#4E6E66" transform="translate(232,277)"/>
<path d="M0 0 C0 3 0 3 -2 6 C-1.01 7.485 -1.01 7.485 0 9 C-6.75 10.125 -6.75 10.125 -9 9 C-6.03 6.03 -3.06 3.06 0 0 Z " fill="#4C7469" transform="translate(264,253)"/>
<path d="M0 0 C0.99 0 1.98 0 3 0 C3.33 0.99 3.66 1.98 4 3 C4.66 3 5.32 3 6 3 C6.66 5.64 7.32 8.28 8 11 C7.01 11 6.02 11 5 11 C4.16151196 9.54462432 3.32936066 8.08559627 2.5 6.625 C1.80390625 5.40683594 1.80390625 5.40683594 1.09375 4.1640625 C0 2 0 2 0 0 Z " fill="#3C5F57" transform="translate(61,246)"/>
<path d="M0 0 C2 3 2 3 1.6875 5.5625 C1 8 1 8 0 10 C0.66 10.33 1.32 10.66 2 11 C2 11.99 2 12.98 2 14 C0.68 14.33 -0.64 14.66 -2 15 C-1.38487182 9.99109914 -0.7282448 4.99367864 0 0 Z " fill="#275448" transform="translate(292,192)"/>
<path d="M0 0 C0.99 0.33 1.98 0.66 3 1 C3 1.66 3 2.32 3 3 C3.66 3 4.32 3 5 3 C5.33 2.34 5.66 1.68 6 1 C5.67 2.65 5.34 4.3 5 6 C4.34 6 3.68 6 3 6 C2.67 6.66 2.34 7.32 2 8 C0.68 6.68 -0.64 5.36 -2 4 C-1.34 2.68 -0.68 1.36 0 0 Z " fill="#215447" transform="translate(102,288)"/>
<path d="M0 0 C0.99 0.33 1.98 0.66 3 1 C-0.02268223 4.25519625 -3.14096436 6.78310719 -7 9 C-7.99 8.67 -8.98 8.34 -10 8 C-8.40629329 6.63353852 -6.79967018 5.28212834 -5.1875 3.9375 C-4.29417969 3.18339844 -3.40085937 2.42929687 -2.48046875 1.65234375 C-1.25263672 0.83443359 -1.25263672 0.83443359 0 0 Z " fill="#63A549" transform="translate(278,283)"/>
<path d="M0 0 C1.32 0 2.64 0 4 0 C2.68775452 3.93673644 1.08089673 6.22719294 -2 9 C-2.25 3.375 -2.25 3.375 0 0 Z " fill="#496E63" transform="translate(301,250)"/>
<path d="M0 0 C0.91078492 2.55019778 1.17843392 3.59554978 0.0625 6.125 C-0.288125 6.74375 -0.63875 7.3625 -1 8 C-1 8.66 -1 9.32 -1 10 C-1.66 10 -2.32 10 -3 10 C-3 10.66 -3 11.32 -3 12 C-3.99 12.33 -4.98 12.66 -6 13 C-4.58707905 8.1725201 -2.57025846 4.2837641 0 0 Z " fill="#517169" transform="translate(63,106)"/>
<path d="M0 0 C-1.3937282 4.43458973 -3.60582235 6.87378374 -7 10 C-6.51020408 3.51020408 -6.51020408 3.51020408 -4.0625 1.0625 C-2 0 -2 0 0 0 Z " fill="#395C4F" transform="translate(104,103)"/>
<path d="M0 0 C0.66 0.66 1.32 1.32 2 2 C-0.64 4.31 -3.28 6.62 -6 9 C-6.66 7.68 -7.32 6.36 -8 5 C-6.68 5 -5.36 5 -4 5 C-3.8453125 4.0409375 -3.8453125 4.0409375 -3.6875 3.0625 C-3.460625 2.381875 -3.23375 1.70125 -3 1 C-2.01 0.67 -1.02 0.34 0 0 Z " fill="#42645B" transform="translate(120,87)"/>
<path d="M0 0 C0 1.32 0 2.64 0 4 C-5.53846154 3.38461538 -5.53846154 3.38461538 -7.875 1.4375 C-8.24625 0.963125 -8.6175 0.48875 -9 0 C-5.62182575 -0.84454356 -3.32534757 -1.10844919 0 0 Z " fill="#396158" transform="translate(246,83)"/>
<path d="M0 0 C2.25 0.125 2.25 0.125 5 1 C7.31308125 3.95560382 8.81355048 6.44065145 10 10 C6.56870293 8.85623431 5.62153121 7.71081232 3.3125 5 C2.68988281 4.278125 2.06726563 3.55625 1.42578125 2.8125 C0 1 0 1 0 0 Z " fill="#75B065" transform="translate(304,351)"/>
<path d="M0 0 C4.19469571 0.59924224 8.00999834 1.57499941 12 3 C12 3.33 12 3.66 12 4 C10.56260487 4.02712066 9.12506137 4.04645067 7.6875 4.0625 C6.48673828 4.07990234 6.48673828 4.07990234 5.26171875 4.09765625 C3 4 3 4 0 3 C0 2.01 0 1.02 0 0 Z " fill="#214B3F" transform="translate(148,313)"/>
<path d="M0 0 C0.33 0.66 0.66 1.32 1 2 C1.66 2 2.32 2 3 2 C3.33 2.66 3.66 3.32 4 4 C4.66 4.33 5.32 4.66 6 5 C5.34 7.64 4.68 10.28 4 13 C2.42445965 10.11371599 1.53723627 7.46657616 0.875 4.25 C0.70742188 3.45078125 0.53984375 2.6515625 0.3671875 1.828125 C0.24601562 1.22484375 0.12484375 0.6215625 0 0 Z " fill="#396158" transform="translate(287,142)"/>
<path d="M0 0 C1.14926266 0.95421808 2.29430541 1.91352045 3.4375 2.875 C4.07558594 3.40867187 4.71367187 3.94234375 5.37109375 4.4921875 C7 6 7 6 8 8 C7.34 8.66 6.68 9.32 6 10 C5.34 8.68 4.68 7.36 4 6 C2.68 6 1.36 6 0 6 C-1 3 -1 3 0 0 Z " fill="#71B35D" transform="translate(372,335)"/>
<path d="M0 0 C0.66 0.33 1.32 0.66 2 1 C2 1.99 2 2.98 2 4 C2.99 4 3.98 4 5 4 C5 3.34 5 2.68 5 2 C6.65 2.33 8.3 2.66 10 3 C6.93753253 4.78409802 4.77920727 5.22880021 1.25 5.125 C0.45078125 5.10695313 -0.3484375 5.08890625 -1.171875 5.0703125 C-1.77515625 5.04710937 -2.3784375 5.02390625 -3 5 C-2.01 3.35 -1.02 1.7 0 0 Z " fill="#235146" transform="translate(210,312)"/>
<path d="M0 0 C1.23922223 3.71766668 0.57018942 5.43889537 -0.4375 9.1875 C-0.72496094 10.27417969 -1.01242188 11.36085937 -1.30859375 12.48046875 C-1.53675781 13.31191406 -1.76492187 14.14335937 -2 15 C-2.33 15 -2.66 15 -3 15 C-4.33534095 9.6586362 -3.65480178 6.13859499 -2 1 C-1.34 0.67 -0.68 0.34 0 0 Z " fill="#4B6C62" transform="translate(79,145)"/>
<path d="M0 0 C0.66 0.33 1.32 0.66 2 1 C1.67 1.598125 1.34 2.19625 1 2.8125 C-0.20787988 5.05386471 -0.20787988 5.05386471 0 8 C-1.32 8 -2.64 8 -4 8 C-6.25065102 9.91666921 -6.25065102 9.91666921 -8 12 C-6.49087042 7.01987239 -3.44338151 3.75740058 0 0 Z " fill="#879D98" transform="translate(77,86)"/>
<path d="M0 0 C3 1 3 1 4.75 3.375 C6 6 6 6 5 9 C3.02 7.02 1.04 5.04 -1 3 C-0.67 2.01 -0.34 1.02 0 0 Z " fill="#5CA44B" transform="translate(317,361)"/>
<path d="M0 0 C0.99 0.33 1.98 0.66 3 1 C3.6875 3.0625 3.6875 3.0625 4 5 C2.02 5.99 2.02 5.99 0 7 C-2 4 -2 4 -2 1 C-1.34 0.67 -0.68 0.34 0 0 Z " fill="#59A543" transform="translate(299,340)"/>
<path d="M0 0 C1.65 0 3.3 0 5 0 C1.54143152 2.94995547 -1.80021485 5.22675738 -6 7 C-6.66 6.67 -7.32 6.34 -8 6 C-8 5.34 -8 4.68 -8 4 C-4.535 3.505 -4.535 3.505 -1 3 C-0.67 2.01 -0.34 1.02 0 0 Z " fill="#57796F" transform="translate(253,299)"/>
<path d="M0 0 C0.33 0 0.66 0 1 0 C1.25 5.625 1.25 5.625 -1 9 C-2.32 9 -3.64 9 -5 9 C-3.50164236 5.88802644 -1.86022073 2.91164984 0 0 Z " fill="#30564F" transform="translate(276,237)"/>
<path d="M0 0 C0.99 0 1.98 0 3 0 C3.6875 1.75 3.6875 1.75 4 4 C2.6875 6.25 2.6875 6.25 1 8 C0.34 8 -0.32 8 -1 8 C-1.125 2.25 -1.125 2.25 0 0 Z " fill="#325A52" transform="translate(54,123)"/>
<path d="M0 0 C1.9375 0.25 1.9375 0.25 4 1 C4.66 1.99 5.32 2.98 6 4 C4.02 4.66 2.04 5.32 0 6 C-0.38218767 4.34385343 -0.71395102 2.67542976 -1 1 C-0.67 0.67 -0.34 0.34 0 0 Z " fill="#67AE53" transform="translate(386,351)"/>
<path d="M0 0 C0.66 0 1.32 0 2 0 C2.144375 0.61875 2.28875 1.2375 2.4375 1.875 C2.93152225 4.03258322 2.93152225 4.03258322 4 6 C3.34 6 2.68 6 2 6 C1.67 7.65 1.34 9.3 1 11 C-1.78637633 6.8204355 -0.79562512 4.85331323 0 0 Z " fill="#205744" transform="translate(50,212)"/>
<path d="M0 0 C-0.33 1.32 -0.66 2.64 -1 4 C-3.31 3.67 -5.62 3.34 -8 3 C-7.67 2.01 -7.34 1.02 -7 0 C-4.3333581 -1.33332095 -2.83319697 -0.67102033 0 0 Z " fill="#489C2F" transform="translate(361,324)"/>
<path d="M0 0 C1.14926266 0.95421808 2.29430541 1.91352045 3.4375 2.875 C4.07558594 3.40867187 4.71367187 3.94234375 5.37109375 4.4921875 C7 6 7 6 8 8 C5.69 7.67 3.38 7.34 1 7 C0.67 4.69 0.34 2.38 0 0 Z " fill="#84BC73" transform="translate(354,316)"/>
<path d="M0 0 C0.99 0.66 1.98 1.32 3 2 C2.25 6.75 2.25 6.75 0 9 C-0.99 8.67 -1.98 8.34 -3 8 C-2.34 8 -1.68 8 -1 8 C-0.67 5.36 -0.34 2.72 0 0 Z " fill="#8DBC57" transform="translate(308,288)"/>
<path d="M0 0 C3.36591427 2.72478774 4.44226276 6.06856792 6 10 C5.01 10 4.02 10 3 10 C0.96564469 6.27034861 0 4.33094958 0 0 Z " fill="#42625C" transform="translate(56,235)"/>
<path d="M0 0 C0.75 1.75 0.75 1.75 1 4 C-0.9375 6.25 -0.9375 6.25 -3 8 C-3.33 5.69 -3.66 3.38 -4 1 C-2 0 -2 0 0 0 Z " fill="#345E51" transform="translate(94,113)"/>
<path d="M0 0 C3.91402949 1.26941497 5.79072873 2.51167694 8 6 C6.125 6.625 6.125 6.625 4 7 C3.34 6.34 2.68 5.68 2 5 C2 4.01 2 3.02 2 2 C1.34 2 0.68 2 0 2 C0 1.34 0 0.68 0 0 Z " fill="#62A94E" transform="translate(362,327)"/>
<path d="M0 0 C0.66 0 1.32 0 2 0 C2.33 0.99 2.66 1.98 3 3 C1.0625 6.1875 1.0625 6.1875 -1 9 C-1.66 8.67 -2.32 8.34 -3 8 C-3 7.34 -3 6.68 -3 6 C-2.34 6 -1.68 6 -1 6 C-1.20625 5.38125 -1.4125 4.7625 -1.625 4.125 C-1.74875 3.42375 -1.8725 2.7225 -2 2 C-1.34 1.34 -0.68 0.68 0 0 Z " fill="#325E50" transform="translate(294,260)"/>
<path d="M0 0 C2.16321167 3.24481751 3.6314591 6.35055759 5 10 C4.67 10.99 4.34 11.98 4 13 C4 12.34 4 11.68 4 11 C3.01 10.67 2.02 10.34 1 10 C-0.1577506 6.52674819 -0.06866652 3.63932552 0 0 Z " fill="#769087" transform="translate(80,213)"/>
<path d="M0 0 C0.8353125 0.556875 0.8353125 0.556875 1.6875 1.125 C-5.0625 5.125 -5.0625 5.125 -7.3125 5.125 C-7.3125 3.805 -7.3125 2.485 -7.3125 1.125 C-2.88173077 -1.09038462 -2.88173077 -1.09038462 0 0 Z " fill="#55776C" transform="translate(133.3125,80.875)"/>
<path d="M0 0 C2.96404505 2.80804268 5.44499019 5.18315774 7 9 C4 9 4 9 2 8 C1.60828247 6.34608154 1.27942455 4.67654729 1 3 C0.67 2.01 0.34 1.02 0 0 Z " fill="#5D8177" transform="translate(98,247)"/>
<path d="M0 0 C4.41889613 1.35021826 6.34345343 3.26115668 9 7 C6 7 6 7 4.39453125 5.46875 C3.87246094 4.8190625 3.35039062 4.169375 2.8125 3.5 C2.28269531 2.8503125 1.75289063 2.200625 1.20703125 1.53125 C0.80871094 1.0259375 0.41039062 0.520625 0 0 Z " fill="#72AB5E" transform="translate(358,406)"/>
<path d="M0 0 C2.8125 0.1875 2.8125 0.1875 6 1 C7.875 3.5625 7.875 3.5625 9 6 C5.06326356 4.68775452 2.77280706 3.08089673 0 0 Z " fill="#4C6B65" transform="translate(106,296)"/>
<path d="M0 0 C2.64 1.98 5.28 3.96 8 6 C6 7 6 7 2.875 6.0625 C1.92625 5.711875 0.9775 5.36125 0 5 C0 3.35 0 1.7 0 0 Z " fill="#648479" transform="translate(108,258)"/>
<path d="M0 0 C2.75 -0.25 2.75 -0.25 6 0 C8.375 2 8.375 2 10 4 C9.01 4.495 9.01 4.495 8 5 C6.0546875 4.22265625 6.0546875 4.22265625 3.875 3.0625 C3.15054688 2.68222656 2.42609375 2.30195312 1.6796875 1.91015625 C1.12539062 1.60980469 0.57109375 1.30945313 0 1 C0 0.67 0 0.34 0 0 Z " fill="#5D7F78" transform="translate(227,78)"/>
<path d="M0 0 C2.64 0.33 5.28 0.66 8 1 C4.81237635 3.12508244 2.73487777 3.5020163 -1 4 C-0.67 2.68 -0.34 1.36 0 0 Z " fill="#275249" transform="translate(224,310)"/>
<path d="M0 0 C4.62 0 9.24 0 14 0 C14 0.33 14 0.66 14 1 C5.96498906 3.27571116 5.96498906 3.27571116 1.9375 2.125 C1.298125 1.75375 0.65875 1.3825 0 1 C0 0.67 0 0.34 0 0 Z " fill="#5F9650" transform="translate(313,291)"/>
<path d="M0 0 C1.65 0.33 3.3 0.66 5 1 C5 2.65 5 4.3 5 6 C3.02 4.68 1.04 3.36 -1 2 C-0.67 1.34 -0.34 0.68 0 0 Z " fill="#335F54" transform="translate(248,88)"/>
<path d="M0 0 C-0.66 1.32 -1.32 2.64 -2 4 C-2.66 4 -3.32 4 -4 4 C-4 4.66 -4 5.32 -4 6 C-4.66 6 -5.32 6 -6 6 C-6 4.68 -6 3.36 -6 2 C-3 0 -3 0 0 0 Z " fill="#1A4136" transform="translate(105,64)"/>
<path d="M0 0 C1.6396875 0.0928125 1.6396875 0.0928125 3.3125 0.1875 C2.9825 1.1775 2.6525 2.1675 2.3125 3.1875 C-0.6575 3.1875 -3.6275 3.1875 -6.6875 3.1875 C-3.6875 0.1875 -3.6875 0.1875 0 0 Z " fill="#466861" transform="translate(123.6875,51.8125)"/>
<path d="M0 0 C1.65 0.33 3.3 0.66 5 1 C5 2.32 5 3.64 5 5 C2.69 4.34 0.38 3.68 -2 3 C-1.34 2.67 -0.68 2.34 0 2 C0 1.34 0 0.68 0 0 Z " fill="#31584F" transform="translate(222,73)"/>
<path d="M0 0 C6.875 3.75 6.875 3.75 8 6 C4.62537285 5.45276317 2.91765 4.9451 0 3 C0 2.01 0 1.02 0 0 Z " fill="#40635A" transform="translate(266,65)"/>
<path d="M0 0 C4.455 2.97 4.455 2.97 9 6 C6 7 6 7 3.375 5.8125 C1 4 1 4 0 0 Z " fill="#4A6960" transform="translate(257,58)"/>
<path d="M0 0 C2.62187494 1.04874998 3.79371361 1.64931313 5.25 4.125 C5.4975 4.74375 5.745 5.3625 6 6 C4.125 5.8125 4.125 5.8125 2 5 C0.75 2.4375 0.75 2.4375 0 0 Z " fill="#75AB63" transform="translate(292,338)"/>
<path d="M0 0 C0.66 0 1.32 0 2 0 C2 0.66 2 1.32 2 2 C2.66 2 3.32 2 4 2 C4.33 3.32 4.66 4.64 5 6 C4.01 6.33 3.02 6.66 2 7 C2 5.68 2 4.36 2 3 C1.34 3 0.68 3 0 3 C0 2.01 0 1.02 0 0 Z " fill="#35594F" transform="translate(82,224)"/>
<path d="M0 0 C0.66 0 1.32 0 2 0 C3.37482707 1.63260714 4.70647667 3.30225062 6 5 C6.66 5.66 7.32 6.32 8 7 C7.01 7.33 6.02 7.66 5 8 C5 7.34 5 6.68 5 6 C4.360625 5.7525 3.72125 5.505 3.0625 5.25 C1 4 1 4 0.25 1.875 C0.1675 1.25625 0.085 0.6375 0 0 Z " fill="#5A7972" transform="translate(274,71)"/>
<path d="M0 0 C1.32 0.33 2.64 0.66 4 1 C4 2.98 4 4.96 4 7 C2 5.1875 2 5.1875 0 3 C0 2.01 0 1.02 0 0 Z " fill="#4E716A" transform="translate(75,266)"/>
<path d="M0 0 C0.99 0.33 1.98 0.66 3 1 C1.35 2.65 -0.3 4.3 -2 6 C-2.33 5.01 -2.66 4.02 -3 3 C-2.01 2.67 -1.02 2.34 0 2 C0 1.34 0 0.68 0 0 Z " fill="#0A3C30" transform="translate(60,116)"/>
<path d="M0 0 C2.97 0.495 2.97 0.495 6 1 C5.67 2.65 5.34 4.3 5 6 C3.31237149 4.3545622 1.6459651 2.68711423 0 1 C0 0.67 0 0.34 0 0 Z " fill="#406860" transform="translate(270,112)"/>
<path d="M0 0 C2.31 0.66 4.62 1.32 7 2 C4 4 4 4 1.8125 3.625 C1.214375 3.41875 0.61625 3.2125 0 3 C0 2.01 0 1.02 0 0 Z " fill="#3C5D56" transform="translate(235,48)"/>
</svg>
